<?xml version="1.0" encoding="utf-8"?>
<!-- Generator: Adobe Illustrator 23.0.1, SVG Export Plug-In . SVG Version: 6.00 Build 0)  -->
<svg version="1.1" id="图层_1" xmlns="http://www.w3.org/2000/svg" xmlns:xlink="http://www.w3.org/1999/xlink" x="0px" y="0px"
	 width="890px" height="311px" viewBox="0 0 890 311" style="enable-background:new 0 0 890 311;" xml:space="preserve">
<g>
	<g>
		<rect x="42" y="132" style="opacity:0.6;fill:#BBBBBB;enable-background:new    ;" width="126" height="50"/>
		<g>
			<rect x="40.5" y="130.5" style="fill:#FFFFFF;" width="125" height="49"/>
			<path style="fill:#E5E5E5;" d="M165,131v48H41v-48H165 M166,130H40v50h126V130L166,130z"/>
		</g>
	</g>
	<g>
		<g style="enable-background:new    ;">
			<path style="fill:#444444;" d="M111.624,151.478c-0.209,0.317-0.419,0.622-0.643,0.912h5.152v0.802
				c-0.572,0.788-1.396,1.479-2.471,2.088c1.522,0.595,3.225,0.954,5.11,1.092l-0.224,0.898c-2.234-0.166-4.203-0.649-5.934-1.479
				c-1.647,0.746-3.728,1.327-6.241,1.755l-0.377-0.885c2.248-0.359,4.119-0.815,5.599-1.396c-0.712-0.415-1.368-0.885-1.968-1.41
				c-0.544,0.483-1.131,0.912-1.746,1.299l-0.642-0.773c1.382-0.788,2.513-1.825,3.407-3.11L111.624,151.478z M118.074,152.694
				h-1.019v-1.715h-9.299v1.715h-1.019v-2.613h5.11c-0.167-0.359-0.335-0.678-0.517-0.968l1.103-0.166
				c0.167,0.332,0.321,0.719,0.489,1.134h5.152V152.694z M116.51,161.763h-0.977v-0.595h-6.003v0.595h-0.978v-4.327h7.958V161.763z
				 M115.533,160.27v-1.936h-6.003v1.936H115.533z M114.933,153.233h-4.677l-0.042,0.041c0.74,0.608,1.55,1.12,2.415,1.549
				C113.592,154.353,114.36,153.813,114.933,153.233z"/>
			<path style="fill:#444444;" d="M120.589,161.776l-0.74-0.663c1.131-1.549,1.703-3.567,1.731-6.042v-4.326h4.552
				c-0.251-0.581-0.517-1.12-0.81-1.618l1.075-0.166c0.251,0.525,0.502,1.12,0.754,1.784h4.412v4.645h-8.992
				C122.501,157.864,121.846,159.993,120.589,161.776z M122.571,151.727v2.695h7.972v-2.695H122.571z"/>
			<path style="fill:#444444;" d="M138.35,159.634c-1.285,0.498-2.681,0.898-4.175,1.23l-0.251-0.981
				c0.824-0.139,1.634-0.318,2.416-0.539c0.335-2.019,0.572-4.147,0.726-6.415l0.908,0.125c-0.168,2.17-0.433,4.175-0.768,6.027
				c0.391-0.139,0.782-0.263,1.145-0.401V159.634z M135.781,151.353c-0.195-0.719-0.405-1.382-0.642-1.977l1.005-0.166
				c0.195,0.622,0.391,1.341,0.586,2.143h1.633v0.94h-4.412v-0.94H135.781z M135.893,158.556l-0.824,0.207
				c-0.209-1.866-0.475-3.663-0.796-5.392l0.824-0.263C135.39,154.685,135.655,156.51,135.893,158.556z M146.629,153.759v0.912
				h-3.672c-0.098,0.456-0.237,0.898-0.405,1.327h3.672v4.631c0,0.691-0.293,1.037-0.879,1.037h-0.642l-0.237-0.898l0.572,0.041
				c0.182,0,0.279-0.124,0.279-0.373v-3.553h-1.257v4.562h-0.852v-4.562h-1.131v4.576h-0.852v-4.576h-1.229v4.783h-0.908v-5.668
				h2.485c0.167-0.429,0.307-0.871,0.391-1.327h-3.281v-0.912H146.629z M144.982,149.611h0.949v2.985h-6.646v-2.985h0.963v2.115
				h1.857v-2.654h0.978v2.654h1.899V149.611z"/>
		</g>
		<g>
			<g>
				<path style="fill:#878787;" d="M75.657,145.5c2.209,0,4,1.791,4,4s-1.791,4-4,4s-4-1.791-4-4S73.448,145.5,75.657,145.5
					 M75.657,143.5c-3.314,0-6,2.686-6,6s2.686,6,6,6s6-2.686,6-6S78.971,143.5,75.657,143.5z"/>
				<path style="fill:#878787;" d="M79.657,159.5c3.314,0,6,2.686,6,6v1h-20v-1c0-3.314,2.686-6,6-6H79.657 M79.657,157.5h-8
					c-4.418,0-8,3.582-8,8v3h24v-3C87.657,161.082,84.076,157.5,79.657,157.5z"/>
				<path style="fill:#878787;" d="M88.657,157.49h-3c0.758,0.569,1.431,1.242,2,2h1c2.209,0,4,1.791,4,4v1h-3c0,0.33,0,0.66,0,1v1
					h5v-3C94.657,160.176,91.971,157.49,88.657,157.49z"/>
				<path style="fill:#878787;" d="M84.657,144.49c-0.814,0.005-1.615,0.211-2.33,0.6c0.367,0.558,0.662,1.159,0.88,1.79
					c1.441-0.817,3.272-0.311,4.089,1.131c0.817,1.441,0.311,3.272-1.131,4.089c-0.918,0.52-2.041,0.52-2.958,0
					c-0.218,0.631-0.513,1.232-0.88,1.79c0.715,0.389,1.516,0.595,2.33,0.6c2.761,0,5-2.239,5-5
					C89.657,146.729,87.419,144.49,84.657,144.49z"/>
			</g>
		</g>
	</g>
</g>
<g>
	<g>
		<rect x="214" y="132" style="opacity:0.6;fill:#BBBBBB;enable-background:new    ;" width="157" height="50"/>
		<g>
			<rect x="212.5" y="130.5" style="fill:#FFFFFF;" width="156" height="49"/>
			<path style="fill:#E5E5E5;" d="M368,131v48H213v-48H368 M369,130H212v50h157V130L369,130z"/>
		</g>
	</g>
	<g transform="translate(20 9)">
		<g>
			<g id="_编组__11_">
				<g id="_编组_2_11_">
					<path id="_复合路径__11_" style="fill-rule:evenodd;clip-rule:evenodd;fill:#00A4FF;" d="M228.998,144
						c-1.105,0-2,0.895-2,2s0.895,2,2,2s2-0.895,2-2S230.103,144,228.998,144z M224.998,159c-7.18,0.008-13.007-5.805-13.015-12.985
						c-0.008-7.18,5.805-13.007,12.985-13.015c6.413-0.008,11.874,4.663,12.86,11h2c-1.105-8.21-8.656-13.971-16.866-12.866
						c-8.21,1.105-13.971,8.656-12.866,16.866s8.656,13.971,16.866,12.866c6.697-0.901,11.965-6.169,12.866-12.866h-2
						C236.843,154.326,231.4,158.992,224.998,159z M224.998,142v-2h-6v12h6v-2h-4v-3h4v-2h-4v-3H224.998z M228.998,139
						c-1.105,0-2,0.895-2,2s0.895,2,2,2s2-0.895,2-2S230.103,139,228.998,139z M228.998,149c-1.105,0-2,0.895-2,2s0.895,2,2,2
						s2-0.895,2-2S230.103,149,228.998,149z"/>
				</g>
			</g>
		</g>
		<g style="enable-background:new    ;">
			<path style="fill:#444444;" d="M262.713,149.529h-0.98v-5.407h-6.892v5.52h-0.98v-6.122c-0.42,0.337-0.854,0.645-1.274,0.925
				l-0.645-0.771c1.709-1.036,3.124-2.409,4.216-4.104l0.995,0.21c-0.21,0.336-0.42,0.658-0.645,0.966h4.637v0.743
				c-0.504,0.658-0.995,1.218-1.485,1.681h3.054V149.529z M258.735,144.935v1.934c-0.056,1.513-0.546,2.703-1.457,3.6
				c-0.896,0.826-2.367,1.471-4.398,1.947l-0.546-0.854c2.017-0.448,3.432-1.022,4.23-1.751c0.742-0.757,1.135-1.737,1.19-2.941
				v-1.934H258.735z M259.912,141.643h-4.104c-0.477,0.561-0.995,1.064-1.527,1.527h4.202
				C258.959,142.735,259.436,142.231,259.912,141.643z M264.086,151.574l-0.56,0.854c-1.625-1.064-3.292-1.905-5.001-2.521
				l0.504-0.756C260.878,149.823,262.559,150.622,264.086,151.574z"/>
			<path style="fill:#444444;" d="M269.261,140.69v-1.177h0.98v1.177h2.536v0.925h-2.536v1.288h3.362
				c-0.056-1.05-0.084-2.185-0.084-3.418h0.98c0,1.275,0.028,2.41,0.084,3.418h3.53v0.911h-3.474
				c0.084,1.246,0.196,2.269,0.35,3.054c0.084,0.406,0.168,0.784,0.252,1.148c0.504-1.009,0.91-2.186,1.218-3.502l0.896,0.406
				c-0.448,1.751-1.022,3.222-1.723,4.398c0.112,0.322,0.238,0.603,0.364,0.854c0.364,0.687,0.658,1.036,0.882,1.036
				c0.224-0.014,0.42-0.756,0.588-2.241l0.869,0.463c-0.309,1.862-0.743,2.801-1.331,2.801c-0.476,0-0.995-0.434-1.541-1.274
				c-0.154-0.238-0.294-0.49-0.406-0.757c-0.729,0.953-1.555,1.667-2.479,2.172l-0.546-0.812c1.009-0.561,1.877-1.373,2.591-2.451
				c-0.196-0.617-0.378-1.289-0.532-2.031c-0.196-0.925-0.35-2.003-0.434-3.264h-7.858v-0.911h3.46v-1.288h-2.731v-0.925H269.261z
				 M272.777,150.439c-0.701,0.084-1.429,0.183-2.186,0.267v1.652h-0.994v-1.555c-1.009,0.099-2.073,0.183-3.194,0.267l-0.126-0.938
				c1.176-0.07,2.283-0.154,3.32-0.238v-1.247h-2.731l-0.196-0.826c0.392-0.477,0.756-1.051,1.093-1.751h-1.541v-0.896h1.933
				c0.14-0.336,0.266-0.7,0.392-1.064l0.966,0.182c-0.112,0.309-0.224,0.603-0.336,0.883h3.67v0.896h-4.062
				c-0.308,0.645-0.645,1.219-0.995,1.723h1.807v-1.093h0.994v1.093h2.129v0.854h-2.129v1.148c0.771-0.084,1.499-0.168,2.186-0.252
				V150.439z M277.568,141.727l-0.756,0.533c-0.393-0.631-0.938-1.331-1.639-2.102l0.771-0.49
				C276.643,140.452,277.189,141.139,277.568,141.727z"/>
			<path style="fill:#444444;" d="M281.16,143.282v-3.67h1.022v3.67h1.443v0.98h-1.443v4.72c0.672-0.195,1.317-0.405,1.961-0.658
				v1.051c-1.358,0.519-2.829,0.953-4.398,1.289l-0.28-1.064c0.588-0.099,1.148-0.211,1.695-0.351v-4.986h-1.541v-0.98H281.16z
				 M287.323,139.598c-0.154,0.729-0.35,1.429-0.588,2.087h5.126c0,4.819-0.084,7.789-0.252,8.896
				c-0.154,1.135-0.84,1.709-2.059,1.709c-0.378,0-1.009-0.028-1.905-0.057l-0.252-0.952c0.756,0.028,1.415,0.056,1.975,0.056
				c0.729,0,1.148-0.364,1.274-1.093c0.14-0.812,0.21-3.333,0.238-7.578h-4.552c-0.477,1.023-1.065,1.934-1.765,2.746l-0.672-0.868
				c1.19-1.387,2.003-3.082,2.423-5.071L287.323,139.598z M289.747,148.017c-1.205,0.826-2.689,1.555-4.468,2.185l-0.42-0.952
				c1.793-0.588,3.334-1.316,4.623-2.171L289.747,148.017z M288.92,146.056l-0.701,0.7c-0.532-0.631-1.26-1.303-2.185-2.018
				l0.645-0.63C287.576,144.753,288.318,145.411,288.92,146.056z"/>
			<path style="fill:#444444;" d="M297.009,143.674c-0.28,0.645-0.617,1.275-1.023,1.863v6.863h-0.938v-5.701
				c-0.392,0.421-0.812,0.827-1.274,1.219l-0.294-0.938c1.219-1.092,2.115-2.325,2.676-3.712L297.009,143.674z M296.813,139.962
				c-0.616,1.513-1.625,2.844-2.998,4.021l-0.294-0.98c1.12-0.995,1.919-2.144,2.423-3.432L296.813,139.962z M297.233,142.974
				l-0.574-0.687c0.994-0.729,1.807-1.667,2.451-2.829l0.953,0.224c-0.154,0.28-0.309,0.561-0.477,0.812h2.227v0.687
				c-0.308,0.504-0.616,0.925-0.924,1.274h1.569v5.029h-2.101c-0.014,0.364-0.042,0.7-0.084,1.022h2.746v0.91h-2.928l-0.07,0.238
				c0.953,0.477,1.835,1.036,2.62,1.695l-0.532,0.812c-0.785-0.729-1.569-1.331-2.381-1.793c-0.434,0.812-1.205,1.484-2.325,2.045
				l-0.603-0.729c1.121-0.547,1.877-1.232,2.241-2.045l0.084-0.225h-2.213v-0.91h2.451c0.056-0.322,0.084-0.658,0.098-1.022h-2.087
				v-4.623L297.233,142.974z M300.791,141.307h-1.807c-0.336,0.42-0.714,0.799-1.107,1.148h2.045
				C300.217,142.119,300.511,141.727,300.791,141.307z M299.517,144.612v-1.4h-1.289v1.4H299.517z M299.517,145.341h-1.289v1.387
				h1.289V145.341z M300.329,144.612h1.289v-1.4h-1.289V144.612z M301.618,145.341h-1.289v1.387h1.289V145.341z M303.271,152.345
				l-0.196-0.91c0.294,0.042,0.575,0.069,0.841,0.069c0.322,0,0.49-0.168,0.49-0.476v-6.01h-1.513v-0.952h3.502v0.952h-1.05v6.248
				c0,0.714-0.364,1.078-1.093,1.078H303.271z M306.17,140.536v0.911h-3.124v-0.911H306.17z"/>
			<path style="fill:#444444;" d="M319.747,141.685c0.757,0.589,1.205,1.387,1.345,2.382h-1.106
				c-0.14-0.729-0.504-1.289-1.064-1.681c-0.546-0.379-1.204-0.561-1.989-0.561c-1.162,0-2.059,0.406-2.689,1.219
				c-0.588,0.756-0.882,1.751-0.882,2.997c0,1.247,0.28,2.241,0.868,2.97c0.616,0.771,1.499,1.163,2.676,1.163
				c0.798,0,1.471-0.21,2.03-0.631c0.589-0.448,0.995-1.106,1.191-1.975h1.106c-0.225,1.162-0.742,2.073-1.569,2.717
				c-0.771,0.603-1.694,0.911-2.759,0.911c-1.556,0-2.746-0.519-3.572-1.541c-0.757-0.925-1.121-2.129-1.121-3.614
				c0-1.484,0.379-2.703,1.149-3.655c0.84-1.065,2.045-1.583,3.586-1.583C318.053,140.803,318.991,141.097,319.747,141.685z"/>
			<path style="fill:#444444;" d="M323.959,140.999v9.007h5.785V151h-6.92v-10.001H323.959z"/>
			<path style="fill:#444444;" d="M335.524,140.999c0.925,0,1.667,0.224,2.214,0.672c0.532,0.448,0.798,1.064,0.798,1.849
				c0,0.561-0.153,1.051-0.448,1.457c-0.308,0.364-0.714,0.631-1.219,0.799c0.659,0.112,1.163,0.392,1.527,0.812
				c0.364,0.42,0.561,0.952,0.561,1.625c0,0.98-0.351,1.709-1.037,2.185c-0.588,0.393-1.4,0.603-2.423,0.603h-4.44v-10.001H335.524z
				 M332.205,145.369h3.04c0.7,0,1.232-0.154,1.597-0.435c0.364-0.294,0.56-0.729,0.56-1.303c0-0.561-0.182-0.98-0.546-1.261
				s-0.896-0.406-1.597-0.406h-3.054V145.369z M332.205,150.033h3.193c0.701,0,1.247-0.14,1.667-0.392
				c0.49-0.309,0.742-0.799,0.742-1.443s-0.224-1.12-0.644-1.429c-0.406-0.308-0.995-0.448-1.766-0.448h-3.193V150.033z"/>
		</g>
	</g>
</g>
<g>
	<polygon style="fill:#878787;" points="203,151 208,156 203,161 	"/>
	<line style="fill:none;stroke:#878787;stroke-miterlimit:10;" x1="203" y1="156" x2="168" y2="156"/>
</g>
<g>
	<polygon style="fill:#878787;" points="406,151 411,156 406,161 	"/>
	<line style="fill:none;stroke:#878787;stroke-miterlimit:10;" x1="406" y1="156" x2="371" y2="156"/>
</g>
<g>
	<polygon style="fill:#878787;" points="595,151 600,156 595,161 	"/>
	<line style="fill:none;stroke:#878787;stroke-miterlimit:10;" x1="595" y1="156" x2="560" y2="156"/>
</g>
<rect x="415" y="41" style="fill:#EAEBEC;" width="145" height="230"/>
<g>
	<g>
		<rect x="429" y="81" style="opacity:0.6;fill:#BBBBBB;enable-background:new    ;" width="119" height="50"/>
		<g>
			<rect x="427.5" y="79.5" style="fill:#FFFFFF;" width="118" height="49"/>
			<path style="fill:#E5E5E5;" d="M545,80v48H428V80H545 M546,79H427v50h119V79L546,79z"/>
		</g>
	</g>
	<g transform="translate(20 9)">
		<g>
			<path style="fill:#00A4FF;" d="M440.038,108c-7.18,0.008-13.007-5.805-13.015-12.985c-0.008-7.18,5.805-13.007,12.985-13.015
				c6.413-0.008,11.874,4.663,12.86,11h2c-1.105-8.21-8.656-13.971-16.866-12.866c-8.21,1.105-13.971,8.656-12.866,16.866
				c1.105,8.21,8.656,13.971,16.866,12.866c6.697-0.901,11.965-6.169,12.866-12.866h-2C451.883,103.326,446.44,107.993,440.038,108z
				 M447.038,91l-7-4l-7,4v8l3.2,1.83c0.185-0.645,0.529-1.233,1-1.71l-2.2-1.28v-3.7l5,2.86l5-2.86v3.7l-4.14,2.36
				c-0.997-0.475-2.191-0.052-2.666,0.946c-0.475,0.997-0.052,2.191,0.946,2.666c0.997,0.475,2.191,0.052,2.666-0.946
				c0.129-0.27,0.195-0.566,0.194-0.866v-0.14l5-2.86V91z M440.038,94.7l-4.72-2.7l4.72-2.7l4.72,2.7L440.038,94.7z"/>
		</g>
		<g style="enable-background:new    ;">
			<path style="fill:#444444;" d="M467.542,101.429l-0.757-0.7c0.561-1.261,0.841-2.886,0.854-4.847v-6.724h4.09v10.926
				c0,0.841-0.392,1.274-1.177,1.274h-1.121l-0.238-0.896c0.392,0.028,0.742,0.057,1.079,0.057c0.35,0,0.532-0.252,0.532-0.757
				v-3.166h-2.27C468.452,98.558,468.116,100.168,467.542,101.429z M470.805,90.068h-2.255v2.367h2.255V90.068z M468.55,95.686
				h2.255v-2.339h-2.255V95.686z M473.859,101.415h-0.953V89.145h5.673c0,1.736-0.084,2.885-0.252,3.445
				c-0.168,0.574-0.687,0.868-1.569,0.868h-1.135l-0.266-0.868c0.238,0,0.546,0.014,0.938,0.014c0.336,0,0.575-0.027,0.743-0.069
				c0.168-0.057,0.294-0.196,0.378-0.406c0.098-0.309,0.154-0.995,0.182-2.06h-3.74v4.244h4.762v0.854
				c-0.266,1.443-0.728,2.676-1.373,3.685c0.63,0.616,1.373,1.162,2.227,1.652l-0.504,0.854c-0.896-0.518-1.653-1.092-2.297-1.723
				c-0.616,0.715-1.331,1.289-2.171,1.737l-0.532-0.812c0.798-0.435,1.471-0.98,2.031-1.653c-0.896-1.093-1.499-2.325-1.807-3.698
				h-0.336V101.415z M476.576,98.123c0.518-0.841,0.896-1.807,1.148-2.914h-2.661C475.357,96.288,475.862,97.255,476.576,98.123z"/>
			<path style="fill:#444444;" d="M485.842,88.654c-0.154,0.378-0.336,0.728-0.532,1.064h6.107v0.812
				c-0.896,1.036-1.989,1.919-3.278,2.647c1.583,0.672,3.348,1.106,5.295,1.303l-0.462,0.938c-2.213-0.253-4.188-0.812-5.925-1.682
				c-1.709,0.785-3.712,1.359-5.981,1.709l-0.462-0.952c2.031-0.28,3.81-0.729,5.351-1.345c-0.784-0.462-1.513-0.994-2.185-1.583
				c-0.532,0.477-1.106,0.91-1.751,1.303l-0.616-0.812c1.681-0.967,2.83-2.144,3.417-3.544L485.842,88.654z M487.172,94.747
				c0,0.561-0.056,1.093-0.14,1.597h4.931c-0.028,2.367-0.238,3.782-0.644,4.244c-0.406,0.463-1.107,0.701-2.102,0.701
				c-0.448,0-0.994-0.028-1.639-0.057l-0.252-0.91l1.653,0.07c0.84-0.015,1.358-0.196,1.583-0.532
				c0.21-0.337,0.336-1.205,0.378-2.605h-4.146c-0.112,0.364-0.266,0.714-0.448,1.05c-0.714,1.261-2.353,2.312-4.931,3.124
				l-0.672-0.826c2.297-0.673,3.824-1.527,4.553-2.55c0.168-0.252,0.322-0.518,0.434-0.798h-4.174v-0.911h4.455
				c0.112-0.504,0.168-1.036,0.168-1.597H487.172z M489.974,90.671h-5.351l-0.182,0.225c0.784,0.686,1.653,1.274,2.591,1.765
				C488.167,92.1,489.147,91.428,489.974,90.671z"/>
			<path style="fill:#444444;" d="M499.547,93.893c0.266-0.364,0.477-0.742,0.645-1.135l0.966,0.099
				c-0.14,0.364-0.322,0.7-0.518,1.036h3.614c-0.196-0.35-0.406-0.672-0.63-0.952l0.854-0.28c0.294,0.393,0.546,0.798,0.771,1.232
				h1.933v0.896h-3.782c0.911,0.841,2.27,1.513,4.076,2.003l-0.406,0.854c-0.35-0.111-0.672-0.238-0.98-0.35v4.118h-0.896v-0.603
				h-2.619v0.603h-0.896v-4.413h3.74c-1.345-0.616-2.381-1.358-3.082-2.213h-2.367c-0.785,0.896-1.835,1.625-3.152,2.213h3.516
				v4.413h-0.896v-0.603h-2.396v0.603h-0.882v-4.133c-0.378,0.141-0.756,0.267-1.148,0.393l-0.462-0.826
				c1.793-0.532,3.166-1.219,4.146-2.06h-3.866v-0.896H499.547z M500.234,89.088v3.404h-4.272v-3.404H500.234z M499.31,89.957
				h-2.438v1.681h2.438V89.957z M499.436,99.944v-2.102h-2.396v2.102H499.436z M506.145,89.088v3.404h-4.356v-3.404H506.145z
				 M505.192,99.944v-2.102h-2.619v2.102H505.192z M505.234,89.957h-2.521v1.681h2.521V89.957z"/>
		</g>
	</g>
</g>
<g>
	<g>
		<path style="fill:#444444;" d="M433.956,55.024c0.647,0.504,1.031,1.188,1.151,2.039h-0.947c-0.12-0.624-0.432-1.104-0.911-1.439
			c-0.468-0.324-1.032-0.479-1.703-0.479c-0.996,0-1.764,0.348-2.303,1.043c-0.504,0.647-0.756,1.499-0.756,2.566
			s0.239,1.919,0.743,2.543c0.528,0.66,1.283,0.995,2.291,0.995c0.684,0,1.26-0.18,1.739-0.539c0.504-0.384,0.852-0.947,1.02-1.691
			h0.947c-0.192,0.995-0.636,1.775-1.344,2.327c-0.659,0.516-1.451,0.779-2.362,0.779c-1.331,0-2.351-0.443-3.059-1.319
			c-0.647-0.792-0.959-1.823-0.959-3.095c0-1.271,0.323-2.314,0.983-3.13c0.72-0.911,1.751-1.355,3.07-1.355
			C432.505,54.269,433.309,54.521,433.956,55.024z"/>
		<path style="fill:#444444;" d="M436.876,54.437l2.674,7.496h0.036l2.675-7.496h1.079L440.174,63h-1.211l-3.167-8.563H436.876z"/>
		<path style="fill:#444444;" d="M445.491,54.437l3.19,7.304h0.036l3.178-7.304h1.224V63h-0.983v-6.812H452.1L449.137,63h-0.887
			l-2.963-6.812h-0.036V63h-0.983v-8.563H445.491z"/>
		<path style="fill:#444444;" d="M454.983,57.219l-0.491-0.671c1.067-0.96,1.858-2.087,2.387-3.383l0.804,0.204
			c-0.12,0.324-0.265,0.636-0.408,0.936h2.591c-0.168-0.372-0.336-0.72-0.528-1.031l0.888-0.144c0.168,0.348,0.324,0.743,0.48,1.175
			h3.873v0.72h-3.813v0.815h3.37v0.672h-3.37v0.791h3.37v0.672h-3.37v0.852h4.042v0.731h-8.815v-3.37
			C455.68,56.548,455.344,56.884,454.983,57.219z M454.815,61.285v-0.779h4.773v-0.624h0.864v0.624h4.701v0.779h-3.634
			c0.815,0.768,2.074,1.379,3.766,1.835l-0.372,0.768c-1.99-0.672-3.394-1.535-4.233-2.603h-0.228v2.926h-0.864v-2.926h-0.228
			c-0.756,1.02-2.159,1.906-4.21,2.65l-0.455-0.744c1.847-0.563,3.118-1.199,3.813-1.906H454.815z M459.913,55.024h-3.059
			l-0.06,0.096v0.72h3.118V55.024z M459.913,56.512h-3.118v0.791h3.118V56.512z M459.913,57.975h-3.118v0.852h3.118V57.975z"/>
		<path style="fill:#444444;" d="M468.711,58.67c-0.108,0.42-0.229,0.804-0.36,1.164h3.143v4.27h-0.768v-0.695h-1.895v0.719h-0.768
			v-3.586c-0.324,0.696-0.708,1.308-1.164,1.812l-0.455-0.72c0.659-0.744,1.151-1.728,1.475-2.963h-0.936v-0.743h1.116
			c0.083-0.432,0.155-0.888,0.203-1.355h-1.606v-0.768h1.679c0.024-0.455,0.048-0.911,0.06-1.391h-1.379v-0.744h4.114v2.135h0.671
			v0.768h-0.671v2.099H468.711z M470.726,62.641v-2.016h-1.895v2.016H470.726z M468.879,57.927h1.499v-1.355h-1.295
			C469.022,57.051,468.95,57.495,468.879,57.927z M469.154,55.804h1.224v-1.391h-1.163C469.202,54.893,469.179,55.36,469.154,55.804
			z M472.177,56.319v-0.827h1.415c-0.336-0.72-0.671-1.355-1.02-1.919l0.732-0.348c0.359,0.575,0.707,1.223,1.031,1.919l-0.72,0.348
			h1.355c0.348-0.744,0.647-1.523,0.899-2.351l0.815,0.288c-0.252,0.768-0.54,1.451-0.852,2.062h1.331v0.827h-1.991v1.739h1.739
			v0.804h-1.739v1.739h2.255v0.827h-2.255v2.759h-0.852v-2.759h-2.23v-0.827h2.23v-1.739h-1.858v-0.804h1.858v-1.739H472.177z"/>
	</g>
</g>
<g>
	<g>
		<rect x="429" y="145" style="opacity:0.6;fill:#BBBBBB;enable-background:new    ;" width="119" height="50"/>
		<g>
			<rect x="427.5" y="143.5" style="fill:#FFFFFF;" width="118" height="49"/>
			<path style="fill:#E5E5E5;" d="M545,144v48H428v-48H545 M546,143H427v50h119V143L546,143z"/>
		</g>
	</g>
	<g transform="translate(20 9)">
		<g>
			<path style="fill:#00A4FF;" d="M440.038,172c-7.18,0.008-13.007-5.805-13.015-12.985c-0.008-7.18,5.805-13.007,12.985-13.015
				c6.413-0.008,11.874,4.663,12.86,11h2c-1.105-8.21-8.656-13.971-16.866-12.866c-8.21,1.105-13.971,8.656-12.866,16.866
				c1.105,8.21,8.656,13.971,16.866,12.866c6.697-0.901,11.965-6.169,12.866-12.866h-2C451.883,167.326,446.44,171.992,440.038,172z
				 M447.038,155l-7-4l-7,4v8l3.2,1.83c0.185-0.645,0.529-1.233,1-1.71l-2.2-1.28v-3.7l5,2.86l5-2.86v3.7l-4.14,2.36
				c-0.997-0.475-2.191-0.052-2.666,0.946c-0.475,0.997-0.052,2.191,0.946,2.666c0.997,0.475,2.191,0.052,2.666-0.946
				c0.129-0.27,0.195-0.566,0.194-0.866v-0.14l5-2.86V155z M440.038,158.7l-4.72-2.7l4.72-2.7l4.72,2.7L440.038,158.7z"/>
		</g>
		<g style="enable-background:new    ;">
			<path style="fill:#444444;" d="M467.542,165.429l-0.757-0.7c0.561-1.261,0.841-2.886,0.854-4.847v-6.724h4.09v10.926
				c0,0.841-0.392,1.274-1.177,1.274h-1.121l-0.238-0.896c0.392,0.028,0.742,0.057,1.079,0.057c0.35,0,0.532-0.252,0.532-0.757
				v-3.166h-2.27C468.452,162.558,468.116,164.168,467.542,165.429z M470.805,154.068h-2.255v2.367h2.255V154.068z M468.55,159.686
				h2.255v-2.339h-2.255V159.686z M473.859,165.415h-0.953v-12.271h5.673c0,1.736-0.084,2.885-0.252,3.445
				c-0.168,0.574-0.687,0.868-1.569,0.868h-1.135l-0.266-0.868c0.238,0,0.546,0.014,0.938,0.014c0.336,0,0.575-0.027,0.743-0.069
				c0.168-0.057,0.294-0.196,0.378-0.406c0.098-0.309,0.154-0.995,0.182-2.06h-3.74v4.244h4.762v0.854
				c-0.266,1.443-0.728,2.676-1.373,3.685c0.63,0.616,1.373,1.162,2.227,1.652l-0.504,0.854c-0.896-0.518-1.653-1.092-2.297-1.723
				c-0.616,0.715-1.331,1.289-2.171,1.737l-0.532-0.812c0.798-0.435,1.471-0.98,2.031-1.653c-0.896-1.093-1.499-2.325-1.807-3.698
				h-0.336V165.415z M476.576,162.123c0.518-0.841,0.896-1.807,1.148-2.914h-2.661C475.357,160.288,475.862,161.255,476.576,162.123
				z"/>
			<path style="fill:#444444;" d="M485.842,152.654c-0.154,0.378-0.336,0.728-0.532,1.064h6.107v0.812
				c-0.896,1.036-1.989,1.919-3.278,2.647c1.583,0.672,3.348,1.106,5.295,1.303l-0.462,0.938c-2.213-0.253-4.188-0.812-5.925-1.682
				c-1.709,0.785-3.712,1.359-5.981,1.709l-0.462-0.952c2.031-0.28,3.81-0.729,5.351-1.345c-0.784-0.462-1.513-0.994-2.185-1.583
				c-0.532,0.477-1.106,0.91-1.751,1.303l-0.616-0.812c1.681-0.967,2.83-2.144,3.417-3.544L485.842,152.654z M487.172,158.747
				c0,0.561-0.056,1.093-0.14,1.597h4.931c-0.028,2.367-0.238,3.782-0.644,4.244c-0.406,0.463-1.107,0.701-2.102,0.701
				c-0.448,0-0.994-0.028-1.639-0.057l-0.252-0.91l1.653,0.07c0.84-0.015,1.358-0.196,1.583-0.532
				c0.21-0.337,0.336-1.205,0.378-2.605h-4.146c-0.112,0.364-0.266,0.714-0.448,1.05c-0.714,1.261-2.353,2.312-4.931,3.124
				l-0.672-0.826c2.297-0.673,3.824-1.527,4.553-2.55c0.168-0.252,0.322-0.518,0.434-0.798h-4.174v-0.911h4.455
				c0.112-0.504,0.168-1.036,0.168-1.597H487.172z M489.974,154.671h-5.351l-0.182,0.225c0.784,0.686,1.653,1.274,2.591,1.765
				C488.167,156.1,489.147,155.428,489.974,154.671z"/>
			<path style="fill:#444444;" d="M499.547,157.893c0.266-0.364,0.477-0.742,0.645-1.135l0.966,0.099
				c-0.14,0.364-0.322,0.7-0.518,1.036h3.614c-0.196-0.35-0.406-0.672-0.63-0.952l0.854-0.28c0.294,0.393,0.546,0.798,0.771,1.232
				h1.933v0.896h-3.782c0.911,0.841,2.27,1.513,4.076,2.003l-0.406,0.854c-0.35-0.111-0.672-0.238-0.98-0.35v4.118h-0.896v-0.603
				h-2.619v0.603h-0.896v-4.413h3.74c-1.345-0.616-2.381-1.358-3.082-2.213h-2.367c-0.785,0.896-1.835,1.625-3.152,2.213h3.516
				v4.413h-0.896v-0.603h-2.396v0.603h-0.882v-4.133c-0.378,0.141-0.756,0.267-1.148,0.393l-0.462-0.826
				c1.793-0.532,3.166-1.219,4.146-2.06h-3.866v-0.896H499.547z M500.234,153.088v3.404h-4.272v-3.404H500.234z M499.31,153.957
				h-2.438v1.681h2.438V153.957z M499.436,163.944v-2.102h-2.396v2.102H499.436z M506.145,153.088v3.404h-4.356v-3.404H506.145z
				 M505.192,163.944v-2.102h-2.619v2.102H505.192z M505.234,153.957h-2.521v1.681h2.521V153.957z"/>
		</g>
	</g>
</g>
<g>
	<g>
		<rect x="429" y="209" style="opacity:0.6;fill:#BBBBBB;enable-background:new    ;" width="119" height="50"/>
		<g>
			<rect x="427.5" y="207.5" style="fill:#FFFFFF;" width="118" height="49"/>
			<path style="fill:#E5E5E5;" d="M545,208v48H428v-48H545 M546,207H427v50h119V207L546,207z"/>
		</g>
	</g>
	<g transform="translate(20 9)">
		<g>
			<path style="fill:#00A4FF;" d="M440.038,236c-7.18,0.008-13.007-5.805-13.015-12.985c-0.008-7.18,5.805-13.007,12.985-13.015
				c6.413-0.008,11.874,4.663,12.86,11h2c-1.105-8.21-8.656-13.971-16.866-12.866c-8.21,1.105-13.971,8.656-12.866,16.866
				c1.105,8.21,8.656,13.971,16.866,12.866c6.697-0.901,11.965-6.169,12.866-12.866h-2C451.883,231.326,446.44,235.992,440.038,236z
				 M447.038,219l-7-4l-7,4v8l3.2,1.83c0.185-0.645,0.529-1.233,1-1.71l-2.2-1.28v-3.7l5,2.86l5-2.86v3.7l-4.14,2.36
				c-0.997-0.475-2.191-0.052-2.666,0.946c-0.475,0.997-0.052,2.191,0.946,2.666c0.997,0.475,2.191,0.052,2.666-0.946
				c0.129-0.27,0.195-0.566,0.194-0.866v-0.14l5-2.86V219z M440.038,222.7l-4.72-2.7l4.72-2.7l4.72,2.7L440.038,222.7z"/>
		</g>
		<g style="enable-background:new    ;">
			<path style="fill:#444444;" d="M467.542,229.429l-0.757-0.7c0.561-1.261,0.841-2.886,0.854-4.847v-6.724h4.09v10.926
				c0,0.841-0.392,1.274-1.177,1.274h-1.121l-0.238-0.896c0.392,0.028,0.742,0.057,1.079,0.057c0.35,0,0.532-0.252,0.532-0.757
				v-3.166h-2.27C468.452,226.558,468.116,228.168,467.542,229.429z M470.805,218.068h-2.255v2.367h2.255V218.068z M468.55,223.686
				h2.255v-2.339h-2.255V223.686z M473.859,229.415h-0.953v-12.271h5.673c0,1.736-0.084,2.885-0.252,3.445
				c-0.168,0.574-0.687,0.868-1.569,0.868h-1.135l-0.266-0.868c0.238,0,0.546,0.014,0.938,0.014c0.336,0,0.575-0.027,0.743-0.069
				c0.168-0.057,0.294-0.196,0.378-0.406c0.098-0.309,0.154-0.995,0.182-2.06h-3.74v4.244h4.762v0.854
				c-0.266,1.443-0.728,2.676-1.373,3.685c0.63,0.616,1.373,1.162,2.227,1.652l-0.504,0.854c-0.896-0.518-1.653-1.092-2.297-1.723
				c-0.616,0.715-1.331,1.289-2.171,1.737l-0.532-0.812c0.798-0.435,1.471-0.98,2.031-1.653c-0.896-1.093-1.499-2.325-1.807-3.698
				h-0.336V229.415z M476.576,226.123c0.518-0.841,0.896-1.807,1.148-2.914h-2.661C475.357,224.288,475.862,225.255,476.576,226.123
				z"/>
			<path style="fill:#444444;" d="M485.842,216.654c-0.154,0.378-0.336,0.728-0.532,1.064h6.107v0.812
				c-0.896,1.036-1.989,1.919-3.278,2.647c1.583,0.672,3.348,1.106,5.295,1.303l-0.462,0.938c-2.213-0.253-4.188-0.812-5.925-1.682
				c-1.709,0.785-3.712,1.359-5.981,1.709l-0.462-0.952c2.031-0.28,3.81-0.729,5.351-1.345c-0.784-0.462-1.513-0.994-2.185-1.583
				c-0.532,0.477-1.106,0.91-1.751,1.303l-0.616-0.812c1.681-0.967,2.83-2.144,3.417-3.544L485.842,216.654z M487.172,222.747
				c0,0.561-0.056,1.093-0.14,1.597h4.931c-0.028,2.367-0.238,3.782-0.644,4.244c-0.406,0.463-1.107,0.701-2.102,0.701
				c-0.448,0-0.994-0.028-1.639-0.057l-0.252-0.91l1.653,0.07c0.84-0.015,1.358-0.196,1.583-0.532
				c0.21-0.337,0.336-1.205,0.378-2.605h-4.146c-0.112,0.364-0.266,0.714-0.448,1.05c-0.714,1.261-2.353,2.312-4.931,3.124
				l-0.672-0.826c2.297-0.673,3.824-1.527,4.553-2.55c0.168-0.252,0.322-0.518,0.434-0.798h-4.174v-0.911h4.455
				c0.112-0.504,0.168-1.036,0.168-1.597H487.172z M489.974,218.671h-5.351l-0.182,0.225c0.784,0.686,1.653,1.274,2.591,1.765
				C488.167,220.1,489.147,219.428,489.974,218.671z"/>
			<path style="fill:#444444;" d="M499.547,221.893c0.266-0.364,0.477-0.742,0.645-1.135l0.966,0.099
				c-0.14,0.364-0.322,0.7-0.518,1.036h3.614c-0.196-0.35-0.406-0.672-0.63-0.952l0.854-0.28c0.294,0.393,0.546,0.798,0.771,1.232
				h1.933v0.896h-3.782c0.911,0.841,2.27,1.513,4.076,2.003l-0.406,0.854c-0.35-0.111-0.672-0.238-0.98-0.35v4.118h-0.896v-0.603
				h-2.619v0.603h-0.896v-4.413h3.74c-1.345-0.616-2.381-1.358-3.082-2.213h-2.367c-0.785,0.896-1.835,1.625-3.152,2.213h3.516
				v4.413h-0.896v-0.603h-2.396v0.603h-0.882v-4.133c-0.378,0.141-0.756,0.267-1.148,0.393l-0.462-0.826
				c1.793-0.532,3.166-1.219,4.146-2.06h-3.866v-0.896H499.547z M500.234,217.088v3.404h-4.272v-3.404H500.234z M499.31,217.957
				h-2.438v1.681h2.438V217.957z M499.436,227.944v-2.102h-2.396v2.102H499.436z M506.145,217.088v3.404h-4.356v-3.404H506.145z
				 M505.192,227.944v-2.102h-2.619v2.102H505.192z M505.234,217.957h-2.521v1.681h2.521V217.957z"/>
		</g>
	</g>
</g>
<rect x="604" y="41" style="fill:#EAEBEC;" width="144.001" height="230"/>
<g>
	<g>
		<path style="fill:#444444;" d="M627.395,59.243v0.863h-5.757c-1.104,2.267-2.074,3.838-2.891,4.726
			c2.159-0.12,4.306-0.324,6.453-0.611c-0.432-0.768-0.912-1.56-1.439-2.375l0.695-0.432c1.104,1.655,1.955,3.106,2.555,4.329
			l-0.768,0.54c-0.191-0.42-0.396-0.84-0.623-1.271c-2.436,0.312-5.086,0.552-7.964,0.744l-0.229-0.876
			c0.097-0.023,0.156-0.06,0.204-0.084c0.768-0.575,1.787-2.135,3.047-4.689h-4.042v-0.863H627.395z M626.328,55.897v0.839h-8.539
			v-0.839H626.328z"/>
		<path style="fill:#444444;" d="M631.624,60.874c-0.084,0.229-0.168,0.444-0.24,0.66h2.507v0.707
			c-0.264,0.792-0.707,1.476-1.331,2.051c0.575,0.265,1.127,0.528,1.655,0.816l-0.468,0.671c-0.528-0.312-1.14-0.636-1.848-0.947
			c-0.791,0.552-1.786,0.995-2.986,1.331l-0.407-0.72c0.983-0.264,1.835-0.587,2.53-0.983c-0.527-0.228-1.079-0.455-1.667-0.671
			c0.312-0.528,0.588-1.02,0.827-1.5h-1.415v-0.755h1.751c0.108-0.264,0.204-0.516,0.288-0.756L631.624,60.874z M631.144,57.504
			v-2.291h0.804v2.291h2.183v0.756h-2.183v0.132c0.647,0.324,1.318,0.695,1.99,1.104l-0.443,0.672
			c-0.6-0.48-1.115-0.864-1.547-1.151v1.559h-0.804v-2.278c-0.396,0.947-1.115,1.763-2.147,2.458l-0.419-0.695
			c0.923-0.54,1.57-1.14,1.931-1.799h-1.703v-0.756H631.144z M630.472,56.929l-0.624,0.287c-0.252-0.587-0.516-1.103-0.804-1.559
			l0.684-0.228C630.016,55.897,630.256,56.4,630.472,56.929z M633.111,62.289h-2.063c-0.191,0.408-0.407,0.792-0.647,1.151
			c0.48,0.168,0.936,0.336,1.367,0.517C632.367,63.477,632.823,62.913,633.111,62.289z M633.999,55.681
			c-0.24,0.528-0.54,1.044-0.924,1.548l-0.611-0.312c0.384-0.516,0.695-1.019,0.911-1.522L633.999,55.681z M635.318,59.795
			c-0.217,0.552-0.456,1.043-0.708,1.476l-0.54-0.66c0.708-1.343,1.188-3.154,1.428-5.433l0.839,0.144
			c-0.071,0.611-0.167,1.188-0.264,1.715h3.167v0.828h-0.78c-0.06,2.003-0.432,3.718-1.104,5.133
			c0.624,1.079,1.355,1.907,2.219,2.495l-0.468,0.707c-0.839-0.6-1.559-1.415-2.158-2.423c-0.576,0.96-1.319,1.764-2.219,2.411
			l-0.444-0.72c0.936-0.647,1.667-1.476,2.219-2.495C636.037,62.05,635.641,60.994,635.318,59.795z M635.737,58.487
			c0.3,1.403,0.684,2.615,1.164,3.622c0.468-1.211,0.72-2.626,0.768-4.245h-1.775L635.737,58.487z"/>
		<path style="fill:#444444;" d="M640.949,66.092l-0.18-0.816c0.312,0.036,0.624,0.061,0.911,0.061c0.3,0,0.456-0.18,0.456-0.516
			v-2.938c-0.479,0.18-0.947,0.348-1.415,0.491l-0.216-0.839c0.552-0.132,1.104-0.3,1.631-0.492v-2.71h-1.439v-0.828h1.439v-2.267
			h0.84v2.267h1.151v0.828h-1.151v2.362c0.384-0.168,0.755-0.348,1.115-0.54v0.852c-0.372,0.192-0.744,0.36-1.115,0.528v3.502
			c0,0.695-0.336,1.056-1.008,1.056H640.949z M644.151,66.199l-0.671-0.6c0.852-1.583,1.283-3.646,1.295-6.164v-3.755h6.32v2.915
			h-2.255v1.415h2.566v0.779h-2.566v1.476h2.016v3.934h-0.804v-0.588h-3.251v0.588h-0.803v-3.934h2.003V60.79h-2.447
			C645.411,62.841,644.943,64.641,644.151,66.199z M645.615,58.596v0.84c0,0.191-0.013,0.383-0.013,0.575h2.399v-1.415H645.615z
			 M645.615,56.484v1.332h4.641v-1.332H645.615z M650.052,64.844v-1.811h-3.251v1.811H650.052z"/>
		<path style="fill:#444444;" d="M659.018,56.269h4.317v0.84h-8.888v2.734c-0.048,2.65-0.443,4.773-1.211,6.356l-0.708-0.636
			c0.66-1.367,1.008-3.274,1.032-5.721v-3.574h4.509c-0.191-0.371-0.407-0.707-0.623-0.995l0.959-0.168
			C658.622,55.453,658.826,55.837,659.018,56.269z M658.454,57.636c-0.107,0.336-0.216,0.647-0.323,0.96h4.677v0.756h-4.977
			c-0.336,0.768-0.696,1.451-1.08,2.051h2.243v-1.451h0.863v1.451h2.675v0.779h-2.675v1.343h3.586v0.792h-3.586v1.895h-0.863v-1.895
			h-4.33v-0.792h4.33v-1.343h-3.143l-0.18-0.744c0.456-0.563,0.876-1.259,1.247-2.086h-1.811v-0.756h2.123
			c0.132-0.372,0.264-0.756,0.396-1.151L658.454,57.636z"/>
	</g>
</g>
<g>
	<g>
		<rect x="618.001" y="209" style="opacity:0.6;fill:#BBBBBB;enable-background:new    ;" width="118.001" height="50"/>
		<g>
			<rect x="616.501" y="207.5" style="fill:#FFFFFF;" width="117.001" height="49"/>
			<path style="fill:#E5E5E5;" d="M733.003,208v48H617.001v-48H733.003 M734.003,207H616.001v50h118.001V207L734.003,207z"/>
		</g>
	</g>
	<g transform="translate(20 9)">
		<g style="enable-background:new    ;">
			<path style="fill:#444444;" d="M660.233,223.182c-0.098,0.266-0.196,0.518-0.28,0.771h2.928v0.826
				c-0.309,0.925-0.827,1.723-1.555,2.396c0.672,0.308,1.317,0.616,1.933,0.952l-0.546,0.784c-0.616-0.364-1.331-0.742-2.157-1.106
				c-0.924,0.645-2.087,1.163-3.488,1.555l-0.476-0.84c1.148-0.309,2.143-0.687,2.956-1.148c-0.616-0.267-1.261-0.533-1.947-0.785
				c0.364-0.616,0.687-1.19,0.967-1.751h-1.653v-0.882h2.045c0.126-0.309,0.238-0.603,0.336-0.883L660.233,223.182z
				 M659.672,219.245v-2.675h0.938v2.675h2.549v0.883h-2.549v0.154c0.756,0.378,1.541,0.812,2.325,1.288l-0.518,0.784
				c-0.701-0.56-1.303-1.008-1.807-1.345v1.821h-0.938v-2.661c-0.462,1.106-1.303,2.059-2.507,2.871l-0.49-0.812
				c1.079-0.63,1.835-1.33,2.255-2.101h-1.989v-0.883H659.672z M658.888,218.573l-0.729,0.336c-0.294-0.687-0.603-1.289-0.938-1.821
				l0.798-0.266C658.356,217.368,658.636,217.957,658.888,218.573z M661.97,224.834h-2.409c-0.224,0.477-0.477,0.925-0.756,1.345
				c0.56,0.196,1.092,0.393,1.597,0.603C661.101,226.221,661.633,225.562,661.97,224.834z M663.006,217.116
				c-0.28,0.616-0.63,1.219-1.079,1.807l-0.714-0.364c0.448-0.602,0.812-1.19,1.064-1.778L663.006,217.116z M664.547,221.921
				c-0.252,0.645-0.532,1.219-0.826,1.723l-0.63-0.771c0.826-1.568,1.387-3.684,1.667-6.346l0.98,0.169
				c-0.084,0.714-0.196,1.387-0.308,2.003h3.698v0.966h-0.91c-0.07,2.34-0.504,4.343-1.289,5.996
				c0.729,1.261,1.583,2.227,2.591,2.913l-0.546,0.826c-0.981-0.7-1.821-1.652-2.521-2.829c-0.672,1.12-1.541,2.059-2.591,2.815
				l-0.519-0.841c1.093-0.756,1.947-1.723,2.591-2.913C665.388,224.554,664.925,223.321,664.547,221.921z M665.037,220.394
				c0.351,1.64,0.799,3.054,1.359,4.23c0.546-1.415,0.84-3.067,0.896-4.959h-2.073L665.037,220.394z"/>
			<path style="fill:#444444;" d="M671.109,229.274l-0.21-0.952c0.364,0.042,0.729,0.07,1.064,0.07c0.35,0,0.532-0.211,0.532-0.603
				v-3.432c-0.56,0.21-1.106,0.406-1.653,0.574l-0.252-0.98c0.644-0.154,1.289-0.351,1.905-0.574v-3.166h-1.681v-0.967h1.681v-2.647
				h0.98v2.647h1.345v0.967h-1.345v2.76c0.448-0.196,0.883-0.406,1.303-0.631v0.995c-0.434,0.224-0.868,0.42-1.303,0.616v4.09
				c0,0.812-0.392,1.232-1.176,1.232H671.109z M674.849,229.4l-0.785-0.7c0.995-1.849,1.499-4.258,1.513-7.2v-4.384h7.382v3.403
				h-2.633v1.653h2.998v0.91h-2.998v1.724h2.353v4.594h-0.938v-0.686h-3.796v0.686h-0.938v-4.594h2.339v-1.724h-2.858
				C676.32,225.479,675.773,227.58,674.849,229.4z M676.558,220.52v0.98c0,0.225-0.014,0.449-0.014,0.673h2.802v-1.653H676.558z
				 M676.558,218.055v1.555h5.421v-1.555H676.558z M681.741,227.818v-2.115h-3.796v2.115H681.741z"/>
			<path style="fill:#444444;" d="M692.197,217.803h5.043v0.98h-10.38v3.193c-0.056,3.096-0.518,5.575-1.415,7.424l-0.827-0.742
				c0.771-1.597,1.177-3.824,1.205-6.682v-4.174h5.267c-0.224-0.435-0.477-0.827-0.729-1.163l1.121-0.196
				C691.735,216.85,691.973,217.298,692.197,217.803z M691.539,219.399c-0.126,0.393-0.252,0.757-0.378,1.12h5.463v0.883h-5.813
				c-0.392,0.896-0.812,1.695-1.261,2.396h2.62v-1.695h1.008v1.695h3.124v0.91h-3.124v1.569h4.188v0.924h-4.188v2.214h-1.008v-2.214
				h-5.057v-0.924h5.057v-1.569h-3.67l-0.21-0.868c0.532-0.658,1.023-1.471,1.457-2.438h-2.115v-0.883h2.479
				c0.154-0.434,0.308-0.882,0.462-1.345L691.539,219.399z"/>
		</g>
		<g>
			<path style="fill:#00A4FF;" d="M628.601,226h-0.6c-5.5,0-10-1.3-10-3v-6.3c2.2,1.4,5.8,2.3,10,2.3s7.9-0.9,10-2.2v4.5
				c0.689,0.206,1.359,0.474,2,0.8V214c0-2.8-5.4-5-12-5s-12,2.2-12,5v18h2v-6.2c2,1.3,5.3,2.1,9.2,2.2
				c0.346-0.324,0.714-0.625,1.1-0.9C628.341,226.72,628.443,226.348,628.601,226z M628.001,211c5.5,0,10,1.3,10,3s-4.5,3-10,3
				s-10-1.4-10-3C618.001,212.3,622.501,211,628.001,211z M618.001,232h-2c0,2.5,4.4,4.6,10.2,4.9c-0.412-0.66-0.747-1.364-1-2.1
				C621.101,234.5,618.001,233.4,618.001,232z M641.001,229.1V229c0-2.761-2.239-5-5-5s-5,2.239-5,5v0.1
				c-2.146,0.56-3.431,2.753-2.872,4.898c0.46,1.763,2.049,2.996,3.872,3.002h8c2.206-0.007,3.993-1.794,4-4
				C643.986,231.175,642.761,229.583,641.001,229.1z M640.001,235h-8c-1.103-0.003-1.997-0.897-2-2c-0.01-0.908,0.615-1.699,1.5-1.9
				l1.5-0.4v-1.8c0.048-1.62,1.379-2.907,3-2.9c1.607,0.028,2.917,1.295,3,2.9v1.8l1.5,0.4c0.885,0.201,1.51,0.992,1.5,1.9
				C641.998,234.103,641.105,234.997,640.001,235z"/>
		</g>
	</g>
</g>
<g>
	<g>
		<rect x="618.001" y="145" style="opacity:0.6;fill:#BBBBBB;enable-background:new    ;" width="118.001" height="50"/>
		<g>
			<rect x="616.501" y="143.5" style="fill:#FFFFFF;" width="117.001" height="49"/>
			<path style="fill:#E5E5E5;" d="M733.003,144v48H617.001v-48H733.003 M734.003,143H616.001v50h118.001V143L734.003,143z"/>
		</g>
	</g>
	<g transform="translate(20 9)">
		<g style="enable-background:new    ;">
			<path style="fill:#444444;" d="M660.233,159.182c-0.098,0.266-0.196,0.518-0.28,0.771h2.928v0.826
				c-0.309,0.925-0.827,1.723-1.555,2.396c0.672,0.308,1.317,0.616,1.933,0.952l-0.546,0.784c-0.616-0.364-1.331-0.742-2.157-1.106
				c-0.924,0.645-2.087,1.163-3.488,1.555l-0.476-0.84c1.148-0.309,2.143-0.687,2.956-1.148c-0.616-0.267-1.261-0.533-1.947-0.785
				c0.364-0.616,0.687-1.19,0.967-1.751h-1.653v-0.882h2.045c0.126-0.309,0.238-0.603,0.336-0.883L660.233,159.182z
				 M659.672,155.245v-2.675h0.938v2.675h2.549v0.883h-2.549v0.154c0.756,0.378,1.541,0.812,2.325,1.288l-0.518,0.784
				c-0.701-0.56-1.303-1.008-1.807-1.345v1.821h-0.938v-2.661c-0.462,1.106-1.303,2.059-2.507,2.871l-0.49-0.812
				c1.079-0.63,1.835-1.33,2.255-2.101h-1.989v-0.883H659.672z M658.888,154.573l-0.729,0.336c-0.294-0.687-0.603-1.289-0.938-1.821
				l0.798-0.266C658.356,153.368,658.636,153.957,658.888,154.573z M661.97,160.834h-2.409c-0.224,0.477-0.477,0.925-0.756,1.345
				c0.56,0.196,1.092,0.393,1.597,0.603C661.101,162.221,661.633,161.562,661.97,160.834z M663.006,153.116
				c-0.28,0.616-0.63,1.219-1.079,1.807l-0.714-0.364c0.448-0.602,0.812-1.19,1.064-1.778L663.006,153.116z M664.547,157.921
				c-0.252,0.645-0.532,1.219-0.826,1.723l-0.63-0.771c0.826-1.568,1.387-3.684,1.667-6.346l0.98,0.169
				c-0.084,0.714-0.196,1.387-0.308,2.003h3.698v0.966h-0.91c-0.07,2.34-0.504,4.343-1.289,5.996
				c0.729,1.261,1.583,2.227,2.591,2.913l-0.546,0.826c-0.981-0.7-1.821-1.652-2.521-2.829c-0.672,1.12-1.541,2.059-2.591,2.815
				l-0.519-0.841c1.093-0.756,1.947-1.723,2.591-2.913C665.388,160.554,664.925,159.321,664.547,157.921z M665.037,156.394
				c0.351,1.64,0.799,3.054,1.359,4.23c0.546-1.415,0.84-3.067,0.896-4.959h-2.073L665.037,156.394z"/>
			<path style="fill:#444444;" d="M671.109,165.274l-0.21-0.952c0.364,0.042,0.729,0.07,1.064,0.07c0.35,0,0.532-0.211,0.532-0.603
				v-3.432c-0.56,0.21-1.106,0.406-1.653,0.574l-0.252-0.98c0.644-0.154,1.289-0.351,1.905-0.574v-3.166h-1.681v-0.967h1.681v-2.647
				h0.98v2.647h1.345v0.967h-1.345v2.76c0.448-0.196,0.883-0.406,1.303-0.631v0.995c-0.434,0.224-0.868,0.42-1.303,0.616v4.09
				c0,0.812-0.392,1.232-1.176,1.232H671.109z M674.849,165.4l-0.785-0.7c0.995-1.849,1.499-4.258,1.513-7.2v-4.384h7.382v3.403
				h-2.633v1.653h2.998v0.91h-2.998v1.724h2.353v4.594h-0.938v-0.686h-3.796v0.686h-0.938v-4.594h2.339v-1.724h-2.858
				C676.32,161.479,675.773,163.58,674.849,165.4z M676.558,156.52v0.98c0,0.225-0.014,0.449-0.014,0.673h2.802v-1.653H676.558z
				 M676.558,154.055v1.555h5.421v-1.555H676.558z M681.741,163.818v-2.115h-3.796v2.115H681.741z"/>
			<path style="fill:#444444;" d="M692.197,153.803h5.043v0.98h-10.38v3.193c-0.056,3.096-0.518,5.575-1.415,7.424l-0.827-0.742
				c0.771-1.597,1.177-3.824,1.205-6.682v-4.174h5.267c-0.224-0.435-0.477-0.827-0.729-1.163l1.121-0.196
				C691.735,152.85,691.973,153.298,692.197,153.803z M691.539,155.399c-0.126,0.393-0.252,0.757-0.378,1.12h5.463v0.883h-5.813
				c-0.392,0.896-0.812,1.695-1.261,2.396h2.62v-1.695h1.008v1.695h3.124v0.91h-3.124v1.569h4.188v0.924h-4.188v2.214h-1.008v-2.214
				h-5.057v-0.924h5.057v-1.569h-3.67l-0.21-0.868c0.532-0.658,1.023-1.471,1.457-2.438h-2.115v-0.883h2.479
				c0.154-0.434,0.308-0.882,0.462-1.345L691.539,155.399z"/>
		</g>
		<g>
			<path style="fill:#00A4FF;" d="M628.601,162h-0.6c-5.5,0-10-1.3-10-3v-6.3c2.2,1.4,5.8,2.3,10,2.3s7.9-0.9,10-2.2v4.5
				c0.689,0.206,1.359,0.474,2,0.8V150c0-2.8-5.4-5-12-5s-12,2.2-12,5v18h2v-6.2c2,1.3,5.3,2.1,9.2,2.2
				c0.346-0.324,0.714-0.625,1.1-0.9C628.341,162.72,628.443,162.348,628.601,162z M628.001,147c5.5,0,10,1.3,10,3s-4.5,3-10,3
				s-10-1.4-10-3C618.001,148.3,622.501,147,628.001,147z M618.001,168h-2c0,2.5,4.4,4.6,10.2,4.9c-0.412-0.66-0.747-1.364-1-2.1
				C621.101,170.5,618.001,169.4,618.001,168z M641.001,165.1V165c0-2.761-2.239-5-5-5s-5,2.239-5,5v0.1
				c-2.146,0.56-3.431,2.753-2.872,4.898c0.46,1.763,2.049,2.996,3.872,3.002h8c2.206-0.007,3.993-1.794,4-4
				C643.986,167.175,642.761,165.583,641.001,165.1z M640.001,171h-8c-1.103-0.003-1.997-0.897-2-2c-0.01-0.908,0.615-1.699,1.5-1.9
				l1.5-0.4v-1.8c0.048-1.62,1.379-2.907,3-2.9c1.607,0.028,2.917,1.295,3,2.9v1.8l1.5,0.4c0.885,0.201,1.51,0.992,1.5,1.9
				C641.998,170.103,641.105,170.997,640.001,171z"/>
		</g>
	</g>
</g>
<g>
	<g>
		<rect x="618.001" y="81" style="opacity:0.6;fill:#BBBBBB;enable-background:new    ;" width="118.001" height="50"/>
		<g>
			<rect x="616.501" y="79.5" style="fill:#FFFFFF;" width="117.001" height="49"/>
			<path style="fill:#E5E5E5;" d="M733.003,80v48H617.001V80H733.003 M734.003,79H616.001v50h118.001V79L734.003,79z"/>
		</g>
	</g>
	<g transform="translate(20 9)">
		<g style="enable-background:new    ;">
			<path style="fill:#444444;" d="M660.233,95.182c-0.098,0.266-0.196,0.518-0.28,0.771h2.928v0.826
				c-0.309,0.925-0.827,1.723-1.555,2.396c0.672,0.308,1.317,0.616,1.933,0.952l-0.546,0.784c-0.616-0.364-1.331-0.742-2.157-1.106
				c-0.924,0.645-2.087,1.163-3.488,1.555l-0.476-0.84c1.148-0.309,2.143-0.687,2.956-1.148c-0.616-0.267-1.261-0.533-1.947-0.785
				c0.364-0.616,0.687-1.19,0.967-1.751h-1.653v-0.882h2.045c0.126-0.309,0.238-0.603,0.336-0.883L660.233,95.182z M659.672,91.245
				V88.57h0.938v2.675h2.549v0.883h-2.549v0.154c0.756,0.378,1.541,0.812,2.325,1.288l-0.518,0.784
				c-0.701-0.56-1.303-1.008-1.807-1.345v1.821h-0.938V92.17c-0.462,1.106-1.303,2.059-2.507,2.871l-0.49-0.812
				c1.079-0.63,1.835-1.33,2.255-2.101h-1.989v-0.883H659.672z M658.888,90.573l-0.729,0.336c-0.294-0.687-0.603-1.289-0.938-1.821
				l0.798-0.266C658.356,89.368,658.636,89.957,658.888,90.573z M661.97,96.834h-2.409c-0.224,0.477-0.477,0.925-0.756,1.345
				c0.56,0.196,1.092,0.393,1.597,0.603C661.101,98.221,661.633,97.562,661.97,96.834z M663.006,89.116
				c-0.28,0.616-0.63,1.219-1.079,1.807l-0.714-0.364c0.448-0.602,0.812-1.19,1.064-1.778L663.006,89.116z M664.547,93.921
				c-0.252,0.645-0.532,1.219-0.826,1.723l-0.63-0.771c0.826-1.568,1.387-3.684,1.667-6.346l0.98,0.169
				c-0.084,0.714-0.196,1.387-0.308,2.003h3.698v0.966h-0.91c-0.07,2.34-0.504,4.343-1.289,5.996
				c0.729,1.261,1.583,2.227,2.591,2.913l-0.546,0.826c-0.981-0.7-1.821-1.652-2.521-2.829c-0.672,1.12-1.541,2.059-2.591,2.815
				l-0.519-0.841c1.093-0.756,1.947-1.723,2.591-2.913C665.388,96.554,664.925,95.321,664.547,93.921z M665.037,92.394
				c0.351,1.64,0.799,3.054,1.359,4.23c0.546-1.415,0.84-3.067,0.896-4.959h-2.073L665.037,92.394z"/>
			<path style="fill:#444444;" d="M671.109,101.274l-0.21-0.952c0.364,0.042,0.729,0.07,1.064,0.07c0.35,0,0.532-0.211,0.532-0.603
				v-3.432c-0.56,0.21-1.106,0.406-1.653,0.574l-0.252-0.98c0.644-0.154,1.289-0.351,1.905-0.574v-3.166h-1.681v-0.967h1.681v-2.647
				h0.98v2.647h1.345v0.967h-1.345v2.76c0.448-0.196,0.883-0.406,1.303-0.631v0.995c-0.434,0.224-0.868,0.42-1.303,0.616v4.09
				c0,0.812-0.392,1.232-1.176,1.232H671.109z M674.849,101.4l-0.785-0.7c0.995-1.849,1.499-4.258,1.513-7.2v-4.384h7.382v3.403
				h-2.633v1.653h2.998v0.91h-2.998v1.724h2.353v4.594h-0.938v-0.686h-3.796v0.686h-0.938v-4.594h2.339v-1.724h-2.858
				C676.32,97.479,675.773,99.58,674.849,101.4z M676.558,92.52v0.98c0,0.225-0.014,0.449-0.014,0.673h2.802V92.52H676.558z
				 M676.558,90.055v1.555h5.421v-1.555H676.558z M681.741,99.818v-2.115h-3.796v2.115H681.741z"/>
			<path style="fill:#444444;" d="M692.197,89.803h5.043v0.98h-10.38v3.193c-0.056,3.096-0.518,5.575-1.415,7.424l-0.827-0.742
				c0.771-1.597,1.177-3.824,1.205-6.682v-4.174h5.267c-0.224-0.435-0.477-0.827-0.729-1.163l1.121-0.196
				C691.735,88.85,691.973,89.298,692.197,89.803z M691.539,91.399c-0.126,0.393-0.252,0.757-0.378,1.12h5.463v0.883h-5.813
				c-0.392,0.896-0.812,1.695-1.261,2.396h2.62v-1.695h1.008v1.695h3.124v0.91h-3.124v1.569h4.188v0.924h-4.188v2.214h-1.008v-2.214
				h-5.057v-0.924h5.057v-1.569h-3.67l-0.21-0.868c0.532-0.658,1.023-1.471,1.457-2.438h-2.115V92.52h2.479
				c0.154-0.434,0.308-0.882,0.462-1.345L691.539,91.399z"/>
		</g>
		<g>
			<path style="fill:#00A4FF;" d="M628.601,98h-0.6c-5.5,0-10-1.3-10-3v-6.3c2.2,1.4,5.8,2.3,10,2.3s7.9-0.9,10-2.2v4.5
				c0.689,0.206,1.359,0.474,2,0.8V86c0-2.8-5.4-5-12-5s-12,2.2-12,5v18h2v-6.2c2,1.3,5.3,2.1,9.2,2.2
				c0.346-0.324,0.714-0.625,1.1-0.9C628.341,98.72,628.443,98.348,628.601,98z M628.001,83c5.5,0,10,1.3,10,3s-4.5,3-10,3
				s-10-1.4-10-3C618.001,84.3,622.501,83,628.001,83z M618.001,104h-2c0,2.5,4.4,4.6,10.2,4.9c-0.412-0.66-0.747-1.364-1-2.1
				C621.101,106.5,618.001,105.4,618.001,104z M641.001,101.1V101c0-2.761-2.239-5-5-5s-5,2.239-5,5v0.1
				c-2.146,0.56-3.431,2.753-2.872,4.898c0.46,1.763,2.049,2.996,3.872,3.002h8c2.206-0.007,3.993-1.794,4-4
				C643.986,103.175,642.761,101.583,641.001,101.1z M640.001,107h-8c-1.103-0.003-1.997-0.897-2-2c-0.01-0.908,0.615-1.699,1.5-1.9
				l1.5-0.4v-1.8c0.048-1.62,1.379-2.907,3-2.9c1.607,0.028,2.917,1.295,3,2.9v1.8l1.5,0.4c0.885,0.201,1.51,0.992,1.5,1.9
				C641.998,106.103,641.105,106.997,640.001,107z"/>
		</g>
	</g>
</g>
</svg>
