<svg width="890" height="466" xmlns="http://www.w3.org/2000/svg">

 <g>
  <title>background</title>
  <rect fill="none" id="canvas_background" height="402" width="582" y="-1" x="-1"/>
 </g>
 <g>
  <title>Layer 1</title>
  <rect id="svg_1" fill="#CEE3FF" height="239" width="347" y="187" x="40"/>
  <g id="svg_2">
   <g id="svg_3">
    <path id="svg_4" fill="#00A4FF" d="m57.688,199.598l0,12.705l-1.038,0l0,-2.354c-1.148,0.532 -2.381,0.967 -3.684,1.331l-0.238,-0.995c1.373,-0.308 2.676,-0.756 3.922,-1.345l0,-4.496l-3.712,0l0,-0.967l3.712,0l0,-3.88l1.038,0l0,0.001zm3.683,12.579c-0.883,0 -1.316,-0.477 -1.316,-1.401l0,-11.178l1.022,0l0,4.692c1.219,-0.448 2.396,-1.064 3.544,-1.862l0.588,0.826c-1.457,0.883 -2.829,1.541 -4.132,1.989l0,5.379c0,0.392 0.168,0.603 0.518,0.603l1.751,0c0.309,0 0.533,-0.112 0.673,-0.337c0.112,-0.252 0.196,-1.078 0.238,-2.507l0.952,0.308c-0.084,1.64 -0.224,2.634 -0.448,2.983c-0.224,0.337 -0.645,0.505 -1.246,0.505l-2.144,0z"/>
    <path id="svg_5" fill="#00A4FF" d="m70.664,208.843c-0.896,1.232 -1.988,2.325 -3.306,3.25l-0.63,-0.812c1.274,-0.868 2.354,-1.905 3.235,-3.082l0.701,0.644zm2.802,-7.775l5.743,0l0,0.938l-12.41,0l0,-0.938l5.645,0c-0.196,-0.504 -0.406,-0.98 -0.645,-1.4l1.037,-0.183c0.224,0.477 0.434,0.995 0.63,1.583zm4.007,2.298l0,3.922l-3.908,0l0,3.74c0,0.84 -0.435,1.261 -1.275,1.261l-1.513,0l-0.224,-0.967c0.476,0.042 0.938,0.07 1.387,0.07c0.406,0 0.616,-0.211 0.616,-0.617l0,-3.487l-4.006,0l0,-3.922l8.923,0zm-1.009,0.966l-6.906,0l0,1.989l6.906,0l0,-1.989zm2.787,7.004l-0.742,0.742c-0.771,-1.008 -1.821,-2.087 -3.138,-3.235l0.658,-0.658c1.275,1.064 2.354,2.115 3.222,3.151z"/>
   </g>
  </g>
  <g id="svg_13">
   <g id="svg_14">
    <line id="svg_15" fill="none" stroke="#878787" stroke-miterlimit="10" y2="278" x2="213" y1="335" x1="213"/>
   </g>
   <g id="svg_16">
    <polygon id="svg_17" fill="#878787" points="118,353 113,358 108,353   "/>
    <polyline id="svg_18" fill="none" stroke="#878787" stroke-miterlimit="10" points="113,353 113,335 313,335 313,353   "/>
   </g>
   <polygon id="svg_19" fill="#878787" points="318,353 313,358 308,353  "/>
  </g>
  <g id="svg_20">
   <g id="svg_21">
    <rect id="svg_22" opacity="0.6" fill="#BBBBBB" height="50" width="140" y="228" x="144"/>
    <g id="svg_23">
     <rect id="svg_24" fill="#FFFFFF" height="49" width="139" y="226.5" x="142.5"/>
     <path id="svg_25" fill="#E5E5E5" d="m281,227l0,48l-138,0l0,-48l138,0m1,-1l-140,0l0,50l140,0l0,-50l0,0z"/>
    </g>
   </g>
   <g id="svg_26">
    <g id="svg_27">
     <g id="_编组__3_">
      <g id="_编组_2_3_">
       <path fill-rule="evenodd" clip-rule="evenodd" fill="#00A4FF" d="m184.038,249c-1.105,0 -2,0.895 -2,2s0.895,2 2,2s2,-0.895 2,-2s-0.896,-2 -2,-2zm-4,15c-7.18,0.008 -13.007,-5.805 -13.015,-12.985c-0.008,-7.18 5.805,-13.007 12.985,-13.015c6.413,-0.008 11.874,4.663 12.86,11l2,0c-1.105,-8.21 -8.656,-13.971 -16.866,-12.866c-8.21,1.105 -13.971,8.656 -12.866,16.866s8.656,13.971 16.866,12.866c6.697,-0.901 11.965,-6.169 12.866,-12.866l-2,0c-0.985,6.326 -6.428,10.992 -12.83,11zm0,-17l0,-2l-6,0l0,12l6,0l0,-2l-4,0l0,-3l4,0l0,-2l-4,0l0,-3l4,0zm4,-3c-1.105,0 -2,0.895 -2,2s0.895,2 2,2s2,-0.895 2,-2s-0.896,-2 -2,-2zm0,10c-1.105,0 -2,0.895 -2,2s0.895,2 2,2s2,-0.895 2,-2s-0.896,-2 -2,-2z" id="_复合路径__3_"/>
      </g>
     </g>
    </g>
    <g id="svg_28">
     <path id="svg_29" fill="#444444" d="m217.753,254.529l-0.98,0l0,-5.407l-6.892,0l0,5.52l-0.98,0l0,-6.122c-0.42,0.337 -0.854,0.645 -1.274,0.925l-0.645,-0.771c1.709,-1.036 3.124,-2.409 4.216,-4.104l0.995,0.21c-0.21,0.336 -0.42,0.658 -0.645,0.966l4.637,0l0,0.743c-0.504,0.658 -0.995,1.218 -1.485,1.681l3.054,0l0,6.359l-0.001,0zm-3.978,-4.594l0,1.934c-0.056,1.513 -0.546,2.703 -1.457,3.6c-0.896,0.826 -2.367,1.471 -4.398,1.947l-0.546,-0.854c2.017,-0.448 3.432,-1.022 4.23,-1.751c0.742,-0.757 1.135,-1.737 1.19,-2.941l0,-1.934l0.981,0l0,-0.001zm1.176,-3.292l-4.104,0c-0.477,0.561 -0.995,1.064 -1.527,1.527l4.202,0c0.477,-0.435 0.953,-0.939 1.429,-1.527zm4.174,9.931l-0.56,0.854c-1.625,-1.064 -3.292,-1.905 -5.001,-2.521l0.504,-0.756c1.85,0.672 3.531,1.471 5.057,2.423z"/>
     <path id="svg_30" fill="#444444" d="m224.301,245.69l0,-1.177l0.98,0l0,1.177l2.536,0l0,0.925l-2.536,0l0,1.288l3.362,0c-0.056,-1.05 -0.084,-2.185 -0.084,-3.418l0.98,0c0,1.275 0.028,2.41 0.084,3.418l3.53,0l0,0.911l-3.474,0c0.084,1.246 0.196,2.269 0.35,3.054c0.084,0.406 0.168,0.784 0.252,1.148c0.504,-1.009 0.91,-2.186 1.218,-3.502l0.896,0.406c-0.448,1.751 -1.022,3.222 -1.723,4.398c0.112,0.322 0.238,0.603 0.364,0.854c0.364,0.687 0.658,1.036 0.882,1.036c0.224,-0.014 0.42,-0.756 0.588,-2.241l0.869,0.463c-0.309,1.862 -0.743,2.801 -1.331,2.801c-0.476,0 -0.995,-0.434 -1.541,-1.274c-0.154,-0.238 -0.294,-0.49 -0.406,-0.757c-0.729,0.953 -1.555,1.667 -2.479,2.172l-0.546,-0.812c1.009,-0.561 1.877,-1.373 2.591,-2.451c-0.196,-0.617 -0.378,-1.289 -0.532,-2.031c-0.196,-0.925 -0.35,-2.003 -0.434,-3.264l-7.858,0l0,-0.911l3.46,0l0,-1.288l-2.731,0l0,-0.925l2.733,0zm3.516,9.749c-0.701,0.084 -1.429,0.183 -2.186,0.267l0,1.652l-0.994,0l0,-1.555c-1.009,0.099 -2.073,0.183 -3.194,0.267l-0.126,-0.938c1.176,-0.07 2.283,-0.154 3.32,-0.238l0,-1.247l-2.731,0l-0.196,-0.826c0.392,-0.477 0.756,-1.051 1.093,-1.751l-1.541,0l0,-0.896l1.933,0c0.14,-0.336 0.266,-0.7 0.392,-1.064l0.966,0.182c-0.112,0.309 -0.224,0.603 -0.336,0.883l3.67,0l0,0.896l-4.062,0c-0.308,0.645 -0.645,1.219 -0.995,1.723l1.807,0l0,-1.093l0.994,0l0,1.093l2.129,0l0,0.854l-2.129,0l0,1.148c0.771,-0.084 1.499,-0.168 2.186,-0.252l0,0.895zm4.79,-8.712l-0.756,0.533c-0.393,-0.631 -0.938,-1.331 -1.639,-2.102l0.771,-0.49c0.7,0.784 1.246,1.471 1.624,2.059z"/>
     <path id="svg_31" fill="#444444" d="m236.2,248.282l0,-3.67l1.022,0l0,3.67l1.443,0l0,0.98l-1.443,0l0,4.72c0.672,-0.195 1.317,-0.405 1.961,-0.658l0,1.051c-1.358,0.519 -2.829,0.953 -4.398,1.289l-0.28,-1.064c0.588,-0.099 1.148,-0.211 1.695,-0.351l0,-4.986l-1.541,0l0,-0.98l1.541,0l0,-0.001zm6.163,-3.684c-0.154,0.729 -0.35,1.429 -0.588,2.087l5.126,0c0,4.819 -0.084,7.789 -0.252,8.896c-0.154,1.135 -0.84,1.709 -2.059,1.709c-0.378,0 -1.009,-0.028 -1.905,-0.057l-0.252,-0.952c0.756,0.028 1.415,0.056 1.975,0.056c0.729,0 1.148,-0.364 1.274,-1.093c0.14,-0.812 0.21,-3.333 0.238,-7.578l-4.552,0c-0.477,1.023 -1.065,1.934 -1.765,2.746l-0.672,-0.868c1.19,-1.387 2.003,-3.082 2.423,-5.071l1.009,0.125zm2.423,8.419c-1.205,0.826 -2.689,1.555 -4.468,2.185l-0.42,-0.952c1.793,-0.588 3.334,-1.316 4.623,-2.171l0.265,0.938zm-0.826,-1.961l-0.701,0.7c-0.532,-0.631 -1.26,-1.303 -2.185,-2.018l0.645,-0.63c0.896,0.645 1.638,1.303 2.241,1.948z"/>
     <path id="svg_32" fill="#444444" d="m252.049,248.674c-0.28,0.645 -0.617,1.275 -1.023,1.863l0,6.863l-0.938,0l0,-5.701c-0.392,0.421 -0.812,0.827 -1.274,1.219l-0.294,-0.938c1.219,-1.092 2.115,-2.325 2.676,-3.712l0.853,0.406zm-0.196,-3.712c-0.616,1.513 -1.625,2.844 -2.998,4.021l-0.294,-0.98c1.12,-0.995 1.919,-2.144 2.423,-3.432l0.869,0.391zm0.42,3.012l-0.574,-0.687c0.994,-0.729 1.807,-1.667 2.451,-2.829l0.953,0.224c-0.154,0.28 -0.309,0.561 -0.477,0.812l2.227,0l0,0.687c-0.308,0.504 -0.616,0.925 -0.924,1.274l1.569,0l0,5.029l-2.101,0c-0.014,0.364 -0.042,0.7 -0.084,1.022l2.746,0l0,0.91l-2.928,0l-0.07,0.238c0.953,0.477 1.835,1.036 2.62,1.695l-0.532,0.812c-0.785,-0.729 -1.569,-1.331 -2.381,-1.793c-0.434,0.812 -1.205,1.484 -2.325,2.045l-0.603,-0.729c1.121,-0.547 1.877,-1.232 2.241,-2.045l0.084,-0.225l-2.213,0l0,-0.91l2.451,0c0.056,-0.322 0.084,-0.658 0.098,-1.022l-2.087,0l0,-4.623l-0.141,0.115zm3.558,-1.667l-1.807,0c-0.336,0.42 -0.714,0.799 -1.107,1.148l2.045,0c0.294,-0.336 0.589,-0.728 0.869,-1.148zm-1.275,3.305l0,-1.4l-1.289,0l0,1.4l1.289,0zm0,0.729l-1.289,0l0,1.387l1.289,0l0,-1.387zm0.813,-0.729l1.289,0l0,-1.4l-1.289,0l0,1.4zm1.288,0.729l-1.289,0l0,1.387l1.289,0l0,-1.387zm1.653,7.004l-0.196,-0.91c0.294,0.042 0.575,0.069 0.841,0.069c0.322,0 0.49,-0.168 0.49,-0.476l0,-6.01l-1.513,0l0,-0.952l3.502,0l0,0.952l-1.05,0l0,6.248c0,0.714 -0.364,1.078 -1.093,1.078l-0.981,0l0,0.001zm2.899,-11.809l0,0.911l-3.124,0l0,-0.911l3.124,0z"/>
    </g>
   </g>
  </g>
  <g id="svg_33">
   <g id="svg_34">
    <rect id="svg_35" opacity="0.6" fill="#BBBBBB" height="50" width="121" y="364" x="54"/>
    <g id="svg_36">
     <rect id="svg_37" fill="#FFFFFF" height="49" width="120" y="362.5" x="52.5"/>
     <path id="svg_38" fill="#E5E5E5" d="m172,363l0,48l-119,0l0,-48l119,0m1,-1l-121,0l0,50l121,0l0,-50l0,0z"/>
    </g>
   </g>
   <g id="svg_39">
    <g id="svg_40">
     <path id="svg_41" fill="#00A4FF" d="m90.038,400c-7.18,0.008 -13.007,-5.805 -13.015,-12.985c-0.008,-7.18 5.805,-13.007 12.985,-13.015c6.413,-0.008 11.874,4.663 12.86,11l2,0c-1.105,-8.21 -8.656,-13.971 -16.866,-12.866c-8.21,1.105 -13.971,8.656 -12.866,16.866c1.105,8.21 8.656,13.971 16.866,12.866c6.697,-0.901 11.965,-6.169 12.866,-12.866l-2,0c-0.985,6.326 -6.428,10.992 -12.83,11zm7,-17l-7,-4l-7,4l0,8l3.2,1.83c0.185,-0.645 0.529,-1.233 1,-1.71l-2.2,-1.28l0,-3.7l5,2.86l5,-2.86l0,3.7l-4.14,2.36c-0.997,-0.475 -2.191,-0.052 -2.666,0.946c-0.475,0.997 -0.052,2.191 0.946,2.666c0.997,0.475 2.191,0.052 2.666,-0.946c0.129,-0.27 0.195,-0.566 0.194,-0.866l0,-0.14l5,-2.86l0,-8zm-7,3.7l-4.72,-2.7l4.72,-2.7l4.72,2.7l-4.72,2.7z"/>
    </g>
    <g id="svg_42">
     <path id="svg_43" fill="#444444" d="m124.125,382.685c0.756,0.589 1.204,1.387 1.345,2.382l-1.107,0c-0.14,-0.729 -0.504,-1.289 -1.064,-1.681c-0.546,-0.379 -1.204,-0.561 -1.988,-0.561c-1.163,0 -2.06,0.406 -2.689,1.219c-0.589,0.756 -0.883,1.751 -0.883,2.997c0,1.247 0.28,2.241 0.868,2.97c0.616,0.771 1.499,1.163 2.676,1.163c0.798,0 1.471,-0.21 2.031,-0.631c0.588,-0.448 0.994,-1.106 1.19,-1.975l1.106,0c-0.224,1.162 -0.742,2.073 -1.568,2.717c-0.771,0.603 -1.695,0.911 -2.76,0.911c-1.555,0 -2.746,-0.519 -3.572,-1.541c-0.756,-0.925 -1.12,-2.129 -1.12,-3.614c0,-1.484 0.378,-2.703 1.148,-3.655c0.84,-1.065 2.045,-1.583 3.586,-1.583c1.106,0 2.044,0.294 2.801,0.882z"/>
     <path id="svg_44" fill="#444444" d="m127.522,381.999l3.124,8.754l0.042,0l3.124,-8.754l1.261,0l-3.698,10.001l-1.415,0l-3.698,-10.001l1.26,0z"/>
     <path id="svg_45" fill="#444444" d="m137.575,381.999l3.726,8.53l0.043,0l3.712,-8.53l1.429,0l0,10.001l-1.149,0l0,-7.956l-0.042,0l-3.46,7.956l-1.037,0l-3.46,-7.956l-0.042,0l0,7.956l-1.148,0l0,-10.001l1.428,0z"/>
    </g>
   </g>
  </g>
  <g id="svg_46">
   <g id="svg_47">
    <rect id="svg_48" opacity="0.6" fill="#BBBBBB" height="50" width="121" y="364" x="254"/>
    <g id="svg_49">
     <rect id="svg_50" fill="#FFFFFF" height="49" width="120" y="362.5" x="252.5"/>
     <path id="svg_51" fill="#E5E5E5" d="m372,363l0,48l-119,0l0,-48l119,0m1,-1l-121,0l0,50l121,0l0,-50l0,0z"/>
    </g>
   </g>
   <g id="svg_52">
    <g id="svg_53">
     <path id="svg_54" fill="#00A4FF" d="m290.038,400c-7.18,0.008 -13.007,-5.805 -13.015,-12.985c-0.008,-7.18 5.805,-13.007 12.985,-13.015c6.413,-0.008 11.874,4.663 12.86,11l2,0c-1.105,-8.21 -8.656,-13.971 -16.866,-12.866c-8.21,1.105 -13.971,8.656 -12.866,16.866c1.105,8.21 8.656,13.971 16.866,12.866c6.697,-0.901 11.965,-6.169 12.866,-12.866l-2,0c-0.985,6.326 -6.428,10.992 -12.83,11zm7,-17l-7,-4l-7,4l0,8l3.2,1.83c0.185,-0.645 0.529,-1.233 1,-1.71l-2.2,-1.28l0,-3.7l5,2.86l5,-2.86l0,3.7l-4.14,2.36c-0.997,-0.475 -2.191,-0.052 -2.666,0.946c-0.475,0.997 -0.052,2.191 0.946,2.666c0.997,0.475 2.191,0.052 2.666,-0.946c0.129,-0.27 0.195,-0.566 0.194,-0.866l0,-0.14l5,-2.86l0,-8zm-7,3.7l-4.72,-2.7l4.72,-2.7l4.72,2.7l-4.72,2.7z"/>
    </g>
    <g id="svg_55">
     <path id="svg_56" fill="#444444" d="m324.125,382.685c0.756,0.589 1.204,1.387 1.345,2.382l-1.107,0c-0.14,-0.729 -0.504,-1.289 -1.064,-1.681c-0.546,-0.379 -1.204,-0.561 -1.988,-0.561c-1.163,0 -2.06,0.406 -2.689,1.219c-0.589,0.756 -0.883,1.751 -0.883,2.997c0,1.247 0.28,2.241 0.868,2.97c0.616,0.771 1.499,1.163 2.676,1.163c0.798,0 1.471,-0.21 2.031,-0.631c0.588,-0.448 0.994,-1.106 1.19,-1.975l1.106,0c-0.224,1.162 -0.742,2.073 -1.568,2.717c-0.771,0.603 -1.695,0.911 -2.76,0.911c-1.555,0 -2.746,-0.519 -3.572,-1.541c-0.756,-0.925 -1.12,-2.129 -1.12,-3.614c0,-1.484 0.378,-2.703 1.148,-3.655c0.84,-1.065 2.045,-1.583 3.586,-1.583c1.106,0 2.044,0.294 2.801,0.882z"/>
     <path id="svg_57" fill="#444444" d="m327.522,381.999l3.124,8.754l0.042,0l3.124,-8.754l1.261,0l-3.698,10.001l-1.415,0l-3.698,-10.001l1.26,0z"/>
     <path id="svg_58" fill="#444444" d="m337.575,381.999l3.726,8.53l0.043,0l3.712,-8.53l1.429,0l0,10.001l-1.149,0l0,-7.956l-0.042,0l-3.46,7.956l-1.037,0l-3.46,-7.956l-0.042,0l0,7.956l-1.148,0l0,-10.001l1.428,0z"/>
    </g>
   </g>
  </g>
  <g id="svg_59">
   <g id="svg_60">
    <rect id="svg_61" opacity="0.6" fill="#BBBBBB" height="50" width="152" y="42" x="339"/>
    <g id="svg_62">
     <rect id="svg_63" fill="#FFFFFF" height="49" width="151" y="40.5" x="337.5"/>
     <path id="svg_64" fill="#E5E5E5" d="m488,41l0,48l-150,0l0,-48l150,0m1,-1l-152,0l0,50l152,0l0,-50l0,0z"/>
    </g>
   </g>
   <g id="svg_65">
    <g id="svg_66">
     <path id="svg_67" fill="#444444" d="m392.9,62.282l0,-3.698l0.995,0l0,3.698l1.331,0l0,0.98l-1.331,0l0,4.229c0.448,-0.195 0.896,-0.42 1.317,-0.644l0,1.008c-1.107,0.589 -2.297,1.079 -3.558,1.472l-0.252,-1.023c0.504,-0.126 1.008,-0.266 1.499,-0.434l0,-4.608l-1.373,0l0,-0.98l1.372,0zm6.584,6.247c-1.373,0.532 -2.857,0.98 -4.454,1.345l-0.238,-0.967c1.625,-0.28 3.194,-0.714 4.692,-1.288l0,0.91zm0.714,-8.068c-0.014,-0.616 -0.014,-1.247 -0.014,-1.891l0.98,0c0,0.658 0,1.288 0.014,1.891l1.429,0c-0.196,-0.532 -0.393,-1.009 -0.617,-1.443l0.911,-0.153c0.182,0.462 0.364,0.994 0.546,1.597l0.687,0l0,0.952l-2.942,0c0.042,2.157 0.14,3.923 0.294,5.281c0.546,-1.177 0.98,-2.535 1.289,-4.104l0.868,0.364c-0.462,2.102 -1.106,3.866 -1.933,5.267c0.28,1.331 0.588,2.018 0.952,2.073c0.28,-0.027 0.546,-0.742 0.827,-2.115l0.756,0.616c-0.448,1.682 -0.966,2.521 -1.583,2.521c-0.462,0 -0.868,-0.364 -1.232,-1.092c-0.14,-0.295 -0.28,-0.631 -0.392,-0.995c-0.687,0.896 -1.471,1.611 -2.339,2.144l-0.616,-0.799c1.036,-0.603 1.933,-1.457 2.661,-2.563c-0.084,-0.392 -0.14,-0.798 -0.196,-1.246c-0.182,-1.401 -0.294,-3.194 -0.336,-5.352l-4.973,0l0,-0.952l4.959,0l0,-0.001zm-0.84,2.339l0,3.95l-3.558,0l0,-3.95l3.558,0zm-0.897,0.841l-1.779,0l0,2.283l1.779,0l0,-2.283z"/>
     <path id="svg_68" fill="#444444" d="m409.73,71.358l-1.008,0l0,-4.944c-0.869,0.28 -1.779,0.532 -2.76,0.771l-0.532,-0.967c2.423,-0.504 4.44,-1.148 6.051,-1.961c-0.616,-0.519 -1.457,-1.078 -2.521,-1.681l0.869,-0.547c1.064,0.659 1.905,1.247 2.507,1.766c1.429,-0.854 2.465,-1.85 3.124,-2.998l-5.183,0c-0.953,0.883 -2.157,1.667 -3.642,2.367l-0.672,-0.868c2.396,-1.022 4.006,-2.283 4.847,-3.769l1.106,0.127c-0.224,0.42 -0.476,0.812 -0.756,1.19l5.463,0l0,0.896c-1.008,1.919 -2.815,3.487 -5.449,4.706l5.841,0l0,5.911l-1.023,0l0,-0.826l-6.261,0l0,0.827l-0.001,0zm6.261,-4.972l-6.261,0l0,3.166l6.261,0l0,-3.166z"/>
     <path id="svg_69" fill="#444444" d="m420.032,71.513l-0.687,-0.63c0.532,-1.037 0.812,-2.367 0.826,-3.965l0,-4.3c-0.056,0.056 -0.098,0.098 -0.14,0.154l-0.617,-0.743c0.841,-0.896 1.527,-2.072 2.073,-3.529l0.911,0.21c-0.112,0.308 -0.238,0.616 -0.35,0.896l2.493,0l0,0.7c-0.308,0.616 -0.63,1.148 -0.938,1.583l1.681,0l0,8.404c0,0.658 -0.35,0.995 -1.022,0.995l-0.798,0l-0.238,-0.841c0.266,0.028 0.519,0.056 0.743,0.056c0.308,0 0.462,-0.182 0.462,-0.518l0,-1.947l-1.303,0l0,3.166l-0.812,0l0,-3.166l-1.331,0c-0.127,1.388 -0.449,2.55 -0.953,3.475zm3.446,-11.08l-1.821,0c-0.28,0.532 -0.588,1.009 -0.896,1.457l1.821,0c0.293,-0.42 0.588,-0.911 0.896,-1.457zm-2.437,6.429c0,0.112 -0.014,0.21 -0.014,0.322l1.289,0l0,-1.834l-1.275,0l0,1.512zm0,-4.104l0,1.751l1.275,0l0,-1.751l-1.275,0zm3.389,0l-1.303,0l0,1.751l1.303,0l0,-1.751zm0,2.592l-1.303,0l0,1.835l1.303,0l0,-1.835zm1.779,2.003l-0.588,-0.714c0.616,-0.673 1.022,-1.556 1.232,-2.676l0.841,0.154c-0.084,0.378 -0.168,0.729 -0.252,1.05l1.289,0l0,-1.303l0.98,0l0,1.303l2.087,0l0,0.911l-2.087,0l0,1.709l2.381,0l0,0.91l-2.381,0l0,2.745l-0.98,0l0,-2.745l-3.054,0l0,-0.91l3.054,0l0,-1.709l-1.653,0c-0.252,0.49 -0.533,0.91 -0.869,1.275zm-0.42,-7.06l0,-0.896l5.841,0c0,1.905 -0.126,3.039 -0.378,3.418c-0.252,0.364 -0.672,0.56 -1.274,0.56c-0.336,0 -0.729,-0.027 -1.177,-0.056l-0.238,-0.841c0.477,0.028 0.883,0.057 1.205,0.07c0.393,-0.014 0.63,-0.14 0.729,-0.378c0.084,-0.238 0.14,-0.868 0.168,-1.877l-2.059,0c-0.14,0.645 -0.35,1.219 -0.616,1.709c-0.364,0.588 -0.911,1.135 -1.625,1.61l-0.588,-0.771c0.63,-0.364 1.107,-0.812 1.415,-1.316c0.21,-0.364 0.364,-0.771 0.462,-1.232l-1.865,0z"/>
     <path id="svg_70" fill="#444444" d="m436.624,71.358l-0.995,0l0,-7.157c-0.476,1.429 -1.106,2.717 -1.891,3.88l-0.434,-1.093c1.064,-1.373 1.821,-2.955 2.269,-4.721l-1.989,0l0,-0.966l2.045,0l0,-2.746l0.995,0l0,2.746l1.891,0l0,0.966l-1.891,0l0,0.757c0.658,0.687 1.331,1.457 2.017,2.325l-0.546,0.798c-0.561,-0.868 -1.051,-1.555 -1.471,-2.072l0,7.283zm9.034,-11.849c-1.597,0.574 -3.375,0.91 -5.337,1.008l0,2.521l5.687,0l0,0.967l-2.087,0l0,7.368l-1.009,0l0,-7.368l-2.591,0l0,0.154c-0.098,2.983 -0.812,5.364 -2.129,7.13l-0.714,-0.743c1.148,-1.54 1.779,-3.67 1.863,-6.387l0,-4.497c2.157,-0.056 4.09,-0.406 5.813,-1.05l0.504,0.897z"/>
     <path id="svg_71" fill="#444444" d="m456.014,59.999c1.583,0 2.773,0.448 3.586,1.372c0.742,0.841 1.12,2.06 1.12,3.628c0,1.541 -0.406,2.76 -1.205,3.628c-0.84,0.911 -2.045,1.373 -3.614,1.373l-3.474,0l0,-10.001l3.587,0zm-2.437,9.007l2.129,0c1.303,0 2.283,-0.351 2.942,-1.037c0.616,-0.672 0.938,-1.667 0.938,-2.97c0,-1.345 -0.294,-2.339 -0.869,-2.983c-0.616,-0.687 -1.569,-1.022 -2.885,-1.022l-2.255,0l0,8.012z"/>
     <path id="svg_72" fill="#444444" d="m463.517,59.999l5.659,8.138l0.042,0l0,-8.138l1.149,0l0,10.001l-1.177,0l-5.687,-8.223l-0.042,0l0,8.223l-1.148,0l0,-10.001l1.204,0z"/>
     <path id="svg_73" fill="#444444" d="m478.401,60.573c0.672,0.532 1.051,1.33 1.148,2.381l-1.134,0c-0.126,-0.729 -0.406,-1.261 -0.84,-1.61c-0.448,-0.364 -1.079,-0.533 -1.891,-0.533c-0.743,0 -1.317,0.112 -1.737,0.364c-0.477,0.28 -0.715,0.701 -0.715,1.275c0,0.504 0.28,0.91 0.854,1.219c0.252,0.14 0.869,0.35 1.835,0.63c1.317,0.393 2.186,0.715 2.605,0.967c0.827,0.504 1.247,1.204 1.247,2.115c0,0.868 -0.351,1.568 -1.051,2.073c-0.7,0.49 -1.639,0.742 -2.83,0.742c-1.177,0 -2.101,-0.252 -2.773,-0.757c-0.785,-0.603 -1.219,-1.513 -1.303,-2.745l1.135,0c0.098,0.868 0.406,1.513 0.91,1.919c0.462,0.364 1.135,0.561 2.031,0.561c0.812,0 1.485,-0.154 1.989,-0.463c0.504,-0.308 0.756,-0.729 0.756,-1.261c0,-0.63 -0.336,-1.12 -0.995,-1.471c-0.28,-0.168 -0.995,-0.406 -2.115,-0.729c-1.205,-0.363 -1.975,-0.644 -2.297,-0.812c-0.77,-0.448 -1.148,-1.093 -1.148,-1.934c0,-0.868 0.364,-1.555 1.106,-2.031c0.659,-0.448 1.513,-0.672 2.55,-0.672c1.122,0.002 2.018,0.254 2.663,0.772z"/>
    </g>
    <g id="svg_74">
     <g id="svg_75">
      <g id="XMLID_9_">
       <g id="svg_76">
        <path id="svg_77" fill-rule="evenodd" clip-rule="evenodd" fill="#00A4FF" d="m380,71.021l0,-18.021l-30,0l0,24l30,0l0,-2.008l-2,0l0,0.008l-26,0l0,-15l26,0l0,11.021l2,0zm-28,-13.021l0,-3l26,0l0,3l-26,0zm8,12l0,0l2,2l1,0l0,-2l7,0l0,-2l-10,0l0,2zm10,-5l-2,-2l-1,0l0,2l-7,0l0,2l10,0l0,-2z"/>
       </g>
      </g>
     </g>
    </g>
   </g>
  </g>
  <g id="svg_78">
   <g id="svg_79">
    <path id="svg_80" fill="#666666" d="m222.847,312.437l0,5.289c0,0.84 0.18,1.476 0.563,1.907c0.396,0.443 1.02,0.672 1.871,0.672c0.84,0 1.463,-0.229 1.871,-0.672c0.372,-0.432 0.563,-1.067 0.563,-1.907l0,-5.289l0.983,0l0,5.277c0,1.115 -0.287,1.967 -0.852,2.555c-0.587,0.6 -1.438,0.899 -2.566,0.899c-1.127,0 -1.979,-0.3 -2.555,-0.888c-0.575,-0.6 -0.863,-1.451 -0.863,-2.566l0,-5.277l0.985,0z"/>
    <path id="svg_81" fill="#666666" d="m234.125,312.437c0.852,0 1.523,0.192 2.015,0.588c0.504,0.408 0.768,1.008 0.768,1.799c0,0.479 -0.132,0.899 -0.396,1.271c-0.288,0.384 -0.672,0.624 -1.163,0.743l0,0.024c0.815,0.18 1.271,0.695 1.367,1.56l0.132,1.318c0.048,0.528 0.204,0.948 0.456,1.26l-1.067,0c-0.192,-0.288 -0.312,-0.659 -0.349,-1.14l-0.107,-1.139c-0.048,-0.504 -0.228,-0.876 -0.54,-1.092c-0.287,-0.216 -0.695,-0.312 -1.235,-0.312l-2.59,0l0,3.683l-0.983,0l0,-8.563l3.692,0zm-2.71,4.03l2.59,0c0.624,0 1.115,-0.156 1.451,-0.444c0.3,-0.275 0.456,-0.659 0.456,-1.163c0,-0.527 -0.156,-0.924 -0.443,-1.176c-0.312,-0.264 -0.804,-0.396 -1.464,-0.396l-2.59,0l0,3.179z"/>
    <path id="svg_82" fill="#666666" d="m239.515,312.437l0,7.712l4.953,0l0,0.851l-5.925,0l0,-8.563l0.972,0z"/>
    <path id="svg_83" fill="#666666" d="m250.83,315.375c0.145,0.144 0.217,0.312 0.217,0.516s-0.072,0.384 -0.217,0.528c-0.144,0.132 -0.323,0.203 -0.516,0.203c-0.216,0 -0.384,-0.071 -0.516,-0.203c-0.144,-0.145 -0.216,-0.324 -0.216,-0.528s0.072,-0.372 0.216,-0.516c0.132,-0.144 0.3,-0.216 0.516,-0.216c0.193,0 0.373,0.072 0.516,0.216zm0,4.39c0.145,0.144 0.217,0.312 0.217,0.516s-0.072,0.384 -0.217,0.528c-0.144,0.132 -0.323,0.203 -0.516,0.203c-0.216,0 -0.384,-0.071 -0.516,-0.203c-0.144,-0.145 -0.216,-0.324 -0.216,-0.528s0.072,-0.372 0.216,-0.516c0.132,-0.144 0.3,-0.216 0.516,-0.216c0.193,0 0.373,0.072 0.516,0.216z"/>
    <path id="svg_84" fill="#666666" d="m261.448,311.165l-4.245,11.034l-0.863,0l4.258,-11.034l0.85,0z"/>
    <path id="svg_85" fill="#666666" d="m263.946,312.665c0.145,0.119 0.216,0.287 0.216,0.503c0,0.204 -0.071,0.372 -0.216,0.516c-0.144,0.133 -0.312,0.204 -0.516,0.204s-0.371,-0.071 -0.516,-0.204c-0.144,-0.144 -0.204,-0.312 -0.204,-0.516c0,-0.216 0.061,-0.384 0.204,-0.503c0.145,-0.145 0.312,-0.204 0.516,-0.204s0.373,0.06 0.516,0.204zm-0.035,2.135l0,6.2l-0.96,0l0,-6.2l0.96,0z"/>
    <path id="svg_86" fill="#666666" d="m270.364,315.807c0.24,-0.407 0.528,-0.707 0.864,-0.888c0.3,-0.191 0.659,-0.287 1.091,-0.287c0.647,0 1.163,0.203 1.571,0.611c0.384,0.42 0.588,0.983 0.588,1.691l0,4.066l-0.96,0l0,-3.91c0,-0.552 -0.12,-0.959 -0.348,-1.223c-0.239,-0.288 -0.623,-0.42 -1.151,-0.42c-0.407,0 -0.756,0.144 -1.02,0.455c-0.288,0.312 -0.42,0.708 -0.42,1.212l0,3.886l-0.959,0l0,-3.91c0,-1.104 -0.479,-1.643 -1.428,-1.643c-0.443,0 -0.803,0.168 -1.091,0.527c-0.288,0.336 -0.432,0.756 -0.432,1.247l0,3.779l-0.96,0l0,-6.2l0.96,0l0,0.827c0.468,-0.672 1.055,-0.995 1.751,-0.995c0.949,0 1.597,0.384 1.944,1.175z"/>
    <path id="svg_87" fill="#666666" d="m280.637,315.327c0.359,0.408 0.552,0.972 0.552,1.691l0,3.982l-0.9,0l0,-1.043c-0.239,0.335 -0.563,0.611 -0.947,0.827c-0.455,0.252 -0.972,0.384 -1.547,0.384c-0.624,0 -1.115,-0.156 -1.487,-0.468c-0.384,-0.324 -0.575,-0.743 -0.575,-1.247c0,-0.708 0.275,-1.235 0.852,-1.596c0.503,-0.336 1.223,-0.516 2.158,-0.527l1.487,-0.024l0,-0.323c0,-1.044 -0.54,-1.56 -1.619,-1.56c-0.456,0 -0.827,0.084 -1.115,0.276c-0.324,0.191 -0.527,0.491 -0.624,0.887l-0.947,-0.071c0.132,-0.647 0.456,-1.14 0.96,-1.451c0.455,-0.288 1.043,-0.432 1.786,-0.432c0.886,0 1.533,0.227 1.966,0.695zm-1.835,2.723c-1.392,0.023 -2.087,0.479 -2.087,1.379c0,0.288 0.107,0.516 0.348,0.708c0.239,0.18 0.552,0.275 0.936,0.275c0.588,0 1.104,-0.191 1.559,-0.575c0.444,-0.372 0.672,-0.804 0.672,-1.283l0,-0.528l-1.428,0.024z"/>
    <path id="svg_88" fill="#666666" d="m287.32,315.867l0,-1.067l0.96,0l0,5.769c0,1.979 -0.948,2.975 -2.831,2.975c-0.84,0 -1.487,-0.168 -1.919,-0.504c-0.443,-0.336 -0.72,-0.84 -0.827,-1.512l0.959,0c0.072,0.42 0.252,0.732 0.528,0.924c0.275,0.204 0.695,0.312 1.259,0.312c1.247,0 1.871,-0.695 1.871,-2.062l0,-1.092c-0.456,0.828 -1.151,1.248 -2.087,1.248c-0.863,0 -1.547,-0.3 -2.051,-0.888c-0.504,-0.576 -0.743,-1.308 -0.743,-2.207c0,-0.911 0.239,-1.643 0.743,-2.219c0.504,-0.611 1.188,-0.911 2.051,-0.911c0.936,-0.001 1.631,0.406 2.087,1.234zm-3.394,0.228c-0.335,0.408 -0.503,0.972 -0.503,1.667c0,0.647 0.144,1.188 0.443,1.595c0.336,0.456 0.827,0.696 1.499,0.696c0.624,0 1.104,-0.216 1.464,-0.647c0.335,-0.42 0.503,-0.972 0.503,-1.644c0,-0.695 -0.168,-1.259 -0.503,-1.667c-0.36,-0.456 -0.84,-0.672 -1.452,-0.672c-0.623,0 -1.103,0.216 -1.451,0.672z"/>
    <path id="svg_89" fill="#666666" d="m294.58,315.639c0.456,0.6 0.695,1.451 0.72,2.531l-4.894,0c0.048,0.695 0.228,1.235 0.563,1.619s0.804,0.575 1.392,0.575c0.504,0 0.924,-0.132 1.235,-0.384c0.264,-0.216 0.468,-0.54 0.624,-0.972l0.959,0c-0.144,0.6 -0.42,1.08 -0.84,1.464c-0.516,0.455 -1.175,0.695 -1.979,0.695c-0.888,0 -1.607,-0.3 -2.135,-0.876c-0.552,-0.6 -0.815,-1.391 -0.815,-2.398c0,-0.911 0.252,-1.679 0.779,-2.291c0.527,-0.647 1.235,-0.971 2.135,-0.971c0.996,0.001 1.752,0.337 2.256,1.008zm-3.562,0.336c-0.335,0.36 -0.527,0.84 -0.587,1.451l3.874,0c-0.12,-1.331 -0.78,-1.99 -1.955,-1.99c-0.552,0 -0.996,0.179 -1.332,0.539z"/>
   </g>
  </g>
  <g id="svg_90">
   <g id="svg_91">
    <path id="svg_92" fill="#666666" d="m222.835,293.391l0,-3.166l0.852,0l0,3.166l1.139,0l0,0.84l-1.139,0l0,3.622c0.384,-0.168 0.768,-0.36 1.127,-0.552l0,0.863c-0.947,0.504 -1.967,0.924 -3.046,1.259l-0.216,-0.875c0.432,-0.108 0.863,-0.228 1.283,-0.372l0,-3.945l-1.176,0l0,-0.84l1.176,0zm5.637,5.348c-1.176,0.456 -2.446,0.84 -3.813,1.151l-0.204,-0.827c1.391,-0.24 2.734,-0.611 4.018,-1.104l0,0.78l-0.001,0zm0.611,-6.908c-0.012,-0.527 -0.012,-1.067 -0.012,-1.619l0.84,0c0,0.564 0,1.104 0.012,1.619l1.224,0c-0.168,-0.455 -0.336,-0.863 -0.528,-1.234l0.78,-0.133c0.155,0.396 0.312,0.852 0.468,1.367l0.587,0l0,0.816l-2.519,0c0.036,1.847 0.12,3.357 0.252,4.521c0.468,-1.008 0.84,-2.171 1.104,-3.515l0.744,0.312c-0.396,1.799 -0.948,3.31 -1.655,4.509c0.239,1.14 0.504,1.728 0.815,1.775c0.239,-0.024 0.468,-0.636 0.707,-1.812l0.648,0.528c-0.384,1.439 -0.828,2.158 -1.355,2.158c-0.396,0 -0.744,-0.312 -1.056,-0.936c-0.12,-0.251 -0.24,-0.539 -0.336,-0.851c-0.588,0.768 -1.259,1.379 -2.003,1.835l-0.527,-0.684c0.888,-0.517 1.655,-1.248 2.278,-2.195c-0.071,-0.336 -0.12,-0.684 -0.168,-1.067c-0.155,-1.199 -0.252,-2.734 -0.287,-4.581l-4.258,0l0,-0.816l4.245,0l0,0.003zm-0.72,2.003l0,3.383l-3.046,0l0,-3.383l3.046,0zm-0.767,0.72l-1.522,0l0,1.955l1.522,0l0,-1.955z"/>
    <path id="svg_93" fill="#666666" d="m237.258,301.162l-0.864,0l0,-4.233c-0.743,0.24 -1.522,0.456 -2.362,0.659l-0.456,-0.827c2.075,-0.432 3.802,-0.983 5.182,-1.679c-0.528,-0.444 -1.247,-0.924 -2.159,-1.439l0.744,-0.468c0.911,0.563 1.631,1.067 2.146,1.511c1.224,-0.731 2.11,-1.583 2.675,-2.566l-4.438,0c-0.816,0.756 -1.848,1.428 -3.119,2.027l-0.575,-0.744c2.051,-0.875 3.43,-1.955 4.149,-3.226l0.947,0.107c-0.191,0.36 -0.407,0.695 -0.647,1.02l4.678,0l0,0.768c-0.863,1.644 -2.411,2.986 -4.665,4.03l5.001,0l0,5.061l-0.876,0l0,-0.707l-5.36,0l0,0.706l-0.001,0zm5.36,-4.258l-5.36,0l0,2.711l5.36,0l0,-2.711z"/>
    <path id="svg_94" fill="#666666" d="m251.095,294.374c0.144,0.144 0.216,0.312 0.216,0.516s-0.072,0.384 -0.216,0.528c-0.144,0.132 -0.324,0.203 -0.516,0.203c-0.216,0 -0.384,-0.071 -0.516,-0.203c-0.145,-0.145 -0.216,-0.324 -0.216,-0.528s0.071,-0.372 0.216,-0.516c0.132,-0.144 0.3,-0.216 0.516,-0.216c0.192,0 0.372,0.072 0.516,0.216zm0,4.39c0.144,0.144 0.216,0.312 0.216,0.516s-0.072,0.384 -0.216,0.528c-0.144,0.132 -0.324,0.203 -0.516,0.203c-0.216,0 -0.384,-0.071 -0.516,-0.203c-0.145,-0.145 -0.216,-0.324 -0.216,-0.528s0.071,-0.372 0.216,-0.516c0.132,-0.144 0.3,-0.216 0.516,-0.216c0.192,0 0.372,0.072 0.516,0.216z"/>
    <path id="svg_95" fill="#666666" d="m257.863,291.268l0,3.67c0.479,-0.875 1.163,-1.307 2.051,-1.307c0.875,0 1.571,0.323 2.074,0.995c0.456,0.6 0.696,1.344 0.696,2.255c0,0.936 -0.24,1.703 -0.696,2.303c-0.516,0.647 -1.223,0.983 -2.122,0.983c-0.96,0 -1.644,-0.396 -2.063,-1.188l0,1.02l-0.899,0l0,-8.731l0.959,0zm0.491,3.826c-0.359,0.443 -0.527,1.031 -0.527,1.751l0,0.12c0,0.695 0.156,1.259 0.468,1.69c0.336,0.48 0.827,0.72 1.451,0.72c0.672,0 1.175,-0.252 1.511,-0.731c0.288,-0.432 0.444,-1.02 0.444,-1.763c0,-0.744 -0.156,-1.319 -0.468,-1.739c-0.348,-0.479 -0.852,-0.72 -1.523,-0.72c-0.564,0 -1.02,0.216 -1.356,0.672z"/>
    <path id="svg_96" fill="#666666" d="m265.327,293.799l0,6.92c0,1.104 -0.588,1.655 -1.739,1.655l-0.575,0l0,-0.804l0.503,0c0.564,0 0.852,-0.3 0.852,-0.888l0,-6.884l0.959,0l0,0.001zm0.048,-2.135c0.132,0.119 0.204,0.287 0.204,0.503c0,0.204 -0.072,0.372 -0.204,0.516c-0.144,0.133 -0.324,0.204 -0.527,0.204c-0.204,0 -0.372,-0.071 -0.517,-0.204c-0.144,-0.144 -0.203,-0.312 -0.203,-0.516c0,-0.216 0.06,-0.384 0.203,-0.503c0.145,-0.145 0.312,-0.204 0.517,-0.204c0.203,0 0.383,0.06 0.527,0.204z"/>
    <path id="svg_97" fill="#666666" d="m268.495,298.788c0.144,0.144 0.216,0.312 0.216,0.527c0,0.204 -0.072,0.372 -0.216,0.516s-0.324,0.216 -0.516,0.216c-0.216,0 -0.384,-0.072 -0.516,-0.216c-0.145,-0.144 -0.216,-0.312 -0.216,-0.516c0,-0.216 0.071,-0.384 0.216,-0.527c0.132,-0.145 0.3,-0.216 0.516,-0.216c0.192,0 0.373,0.072 0.516,0.216z"/>
    <path id="svg_98" fill="#666666" d="m274.949,294.817l0,-1.019l0.899,0l0,8.575l-0.959,0l0,-3.502c-0.48,0.863 -1.164,1.295 -2.051,1.295c-0.888,0 -1.584,-0.336 -2.087,-0.983c-0.456,-0.6 -0.684,-1.355 -0.684,-2.267c0,-0.936 0.228,-1.691 0.695,-2.291c0.504,-0.672 1.211,-0.995 2.123,-0.995c0.925,0.001 1.608,0.396 2.064,1.187zm-3.454,0.349c-0.3,0.432 -0.443,1.02 -0.443,1.751c0,0.743 0.155,1.331 0.468,1.763c0.335,0.456 0.852,0.695 1.522,0.695c0.552,0 1.008,-0.228 1.355,-0.659c0.336,-0.443 0.516,-1.02 0.516,-1.739l0,-0.12c0,-0.695 -0.155,-1.271 -0.455,-1.703c-0.349,-0.491 -0.828,-0.731 -1.452,-0.731c-0.671,-0.001 -1.175,0.239 -1.511,0.743z"/>
    <path id="svg_99" fill="#666666" d="m281.861,294.17c0.479,0.372 0.768,0.936 0.876,1.691l-0.947,0c-0.084,-0.479 -0.276,-0.84 -0.576,-1.079c-0.312,-0.24 -0.708,-0.348 -1.199,-0.348c-0.6,0 -1.079,0.228 -1.428,0.684c-0.335,0.443 -0.503,1.043 -0.503,1.799c0,0.755 0.155,1.355 0.491,1.787c0.324,0.432 0.804,0.659 1.428,0.659c1.055,0 1.667,-0.54 1.811,-1.607l0.96,0c-0.145,0.792 -0.444,1.403 -0.924,1.812c-0.468,0.396 -1.079,0.6 -1.847,0.6c-0.936,0 -1.655,-0.312 -2.171,-0.936c-0.492,-0.588 -0.731,-1.355 -0.731,-2.303s0.239,-1.715 0.731,-2.314c0.527,-0.66 1.259,-0.983 2.183,-0.983c0.767,-0.001 1.379,0.179 1.846,0.538z"/>
    <path id="svg_100" fill="#666666" d="m285.043,291.268l0,8.731l-0.947,0l0,-8.731l0.947,0z"/>
    <path id="svg_101" fill="#666666" d="m291.713,294.59c0.528,0.612 0.792,1.38 0.792,2.314c0,0.924 -0.264,1.691 -0.78,2.291c-0.563,0.647 -1.307,0.972 -2.23,0.972c-0.936,0 -1.667,-0.324 -2.219,-0.972c-0.527,-0.6 -0.791,-1.367 -0.791,-2.291c0,-0.935 0.264,-1.702 0.791,-2.314c0.552,-0.647 1.283,-0.959 2.219,-0.959c0.923,0 1.666,0.311 2.218,0.959zm-3.754,0.599c-0.336,0.456 -0.491,1.02 -0.491,1.715c0,0.684 0.155,1.248 0.491,1.703c0.36,0.504 0.876,0.756 1.535,0.756c0.647,0 1.163,-0.252 1.547,-0.756c0.324,-0.455 0.492,-1.031 0.492,-1.703c0,-0.695 -0.168,-1.259 -0.492,-1.715c-0.384,-0.504 -0.899,-0.755 -1.547,-0.755c-0.659,0.001 -1.175,0.252 -1.535,0.755z"/>
    <path id="svg_102" fill="#666666" d="m294.716,293.799l0,3.789c0,0.588 0.12,1.032 0.371,1.319c0.252,0.288 0.66,0.444 1.224,0.444c0.408,0 0.779,-0.168 1.104,-0.479c0.336,-0.336 0.54,-0.768 0.611,-1.296l0,-3.777l0.96,0l0,6.2l-0.96,0l0,-0.959c-0.503,0.743 -1.175,1.127 -2.015,1.127c-1.511,0 -2.255,-0.852 -2.255,-2.53l0,-3.838l0.96,0z"/>
    <path id="svg_103" fill="#666666" d="m306.017,291.268l0,8.731l-0.899,0l0,-1.02c-0.432,0.792 -1.127,1.188 -2.062,1.188c-0.912,0 -1.619,-0.336 -2.123,-0.983c-0.468,-0.6 -0.695,-1.367 -0.695,-2.303c0,-0.911 0.228,-1.655 0.695,-2.255c0.504,-0.672 1.188,-0.995 2.075,-0.995c0.887,0 1.57,0.432 2.051,1.307l0,-3.67l0.958,0zm-4.342,3.874c-0.312,0.42 -0.455,0.995 -0.455,1.739c0,0.743 0.144,1.331 0.443,1.763c0.336,0.479 0.84,0.731 1.511,0.731c0.624,0 1.104,-0.239 1.452,-0.72c0.3,-0.432 0.455,-0.995 0.455,-1.69l0,-0.12c0,-0.72 -0.18,-1.308 -0.516,-1.751c-0.348,-0.456 -0.804,-0.672 -1.355,-0.672c-0.684,0 -1.199,0.24 -1.535,0.72z"/>
    <path id="svg_104" fill="#666666" d="m309.163,293.799l1.535,0l0,0.803l-1.535,0l0,3.946c0,0.228 0.036,0.396 0.132,0.492c0.084,0.096 0.24,0.155 0.456,0.155l0.791,0l0,0.804l-0.936,0c-0.503,0 -0.875,-0.132 -1.091,-0.396c-0.204,-0.24 -0.3,-0.588 -0.3,-1.056l0,-3.946l-1.247,0l0,-0.803l1.247,0l0,-1.607l0.947,-0.396l0,2.004l0.001,0z"/>
    <path id="svg_105" fill="#666666" d="m316.577,294.638c0.456,0.6 0.695,1.451 0.72,2.531l-4.894,0c0.048,0.695 0.228,1.235 0.563,1.619s0.804,0.575 1.392,0.575c0.504,0 0.924,-0.132 1.235,-0.384c0.264,-0.216 0.468,-0.54 0.624,-0.972l0.959,0c-0.144,0.6 -0.42,1.08 -0.84,1.464c-0.516,0.455 -1.175,0.695 -1.979,0.695c-0.888,0 -1.607,-0.3 -2.135,-0.876c-0.552,-0.6 -0.815,-1.391 -0.815,-2.398c0,-0.911 0.252,-1.679 0.779,-2.291c0.527,-0.647 1.235,-0.971 2.135,-0.971c0.996,0.001 1.752,0.337 2.256,1.008zm-3.562,0.336c-0.335,0.36 -0.527,0.84 -0.587,1.451l3.874,0c-0.12,-1.331 -0.78,-1.99 -1.955,-1.99c-0.552,0 -0.996,0.179 -1.332,0.539z"/>
    <path id="svg_106" fill="#666666" d="m323.165,295.562l-0.936,0c-0.084,-0.384 -0.239,-0.672 -0.479,-0.84c-0.264,-0.191 -0.647,-0.287 -1.14,-0.287c-0.432,0 -0.768,0.071 -1.007,0.239c-0.264,0.156 -0.396,0.372 -0.396,0.647c0,0.264 0.168,0.492 0.528,0.672c0.228,0.108 0.659,0.24 1.283,0.408c0.743,0.18 1.271,0.371 1.595,0.575c0.492,0.312 0.744,0.731 0.744,1.271c0,1.271 -0.876,1.919 -2.627,1.919c-1.631,0 -2.519,-0.72 -2.662,-2.146l0.936,0c0.071,0.491 0.252,0.839 0.516,1.055c0.264,0.192 0.659,0.288 1.188,0.288c1.104,0 1.667,-0.359 1.667,-1.056c0,-0.348 -0.204,-0.611 -0.588,-0.803c-0.204,-0.097 -0.647,-0.229 -1.319,-0.396c-0.731,-0.18 -1.247,-0.359 -1.535,-0.552c-0.479,-0.287 -0.708,-0.684 -0.708,-1.211c0,-0.528 0.229,-0.936 0.696,-1.247c0.432,-0.312 1.007,-0.468 1.703,-0.468c1.534,0.001 2.373,0.637 2.541,1.932z"/>
    <path id="svg_107" fill="#666666" d="m326.144,293.799l1.535,0l0,0.803l-1.535,0l0,3.946c0,0.228 0.035,0.396 0.132,0.492c0.084,0.096 0.239,0.155 0.455,0.155l0.792,0l0,0.804l-0.936,0c-0.504,0 -0.876,-0.132 -1.092,-0.396c-0.203,-0.24 -0.3,-0.588 -0.3,-1.056l0,-3.946l-1.247,0l0,-0.803l1.247,0l0,-1.607l0.948,-0.396l0,2.004l0.001,0z"/>
    <path id="svg_108" fill="#666666" d="m330.103,298.788c0.145,0.144 0.217,0.312 0.217,0.527c0,0.204 -0.072,0.372 -0.217,0.516c-0.144,0.144 -0.323,0.216 -0.516,0.216c-0.216,0 -0.384,-0.072 -0.516,-0.216c-0.144,-0.144 -0.216,-0.312 -0.216,-0.516c0,-0.216 0.072,-0.384 0.216,-0.527c0.132,-0.145 0.3,-0.216 0.516,-0.216c0.192,0 0.372,0.072 0.516,0.216z"/>
    <path id="svg_109" fill="#666666" d="m336.438,294.17c0.479,0.372 0.768,0.936 0.875,1.691l-0.947,0c-0.084,-0.479 -0.275,-0.84 -0.575,-1.079c-0.312,-0.24 -0.708,-0.348 -1.2,-0.348c-0.6,0 -1.079,0.228 -1.427,0.684c-0.336,0.443 -0.504,1.043 -0.504,1.799c0,0.755 0.156,1.355 0.492,1.787c0.323,0.432 0.804,0.659 1.427,0.659c1.056,0 1.667,-0.54 1.812,-1.607l0.959,0c-0.144,0.792 -0.443,1.403 -0.924,1.812c-0.468,0.396 -1.079,0.6 -1.847,0.6c-0.936,0 -1.655,-0.312 -2.171,-0.936c-0.491,-0.588 -0.731,-1.355 -0.731,-2.303s0.24,-1.715 0.731,-2.314c0.528,-0.66 1.26,-0.983 2.183,-0.983c0.766,-0.001 1.379,0.179 1.847,0.538z"/>
    <path id="svg_110" fill="#666666" d="m343.469,294.59c0.528,0.612 0.792,1.38 0.792,2.314c0,0.924 -0.264,1.691 -0.78,2.291c-0.563,0.647 -1.307,0.972 -2.23,0.972c-0.936,0 -1.667,-0.324 -2.219,-0.972c-0.527,-0.6 -0.791,-1.367 -0.791,-2.291c0,-0.935 0.264,-1.702 0.791,-2.314c0.552,-0.647 1.283,-0.959 2.219,-0.959c0.923,0 1.666,0.311 2.218,0.959zm-3.754,0.599c-0.336,0.456 -0.491,1.02 -0.491,1.715c0,0.684 0.155,1.248 0.491,1.703c0.36,0.504 0.876,0.756 1.535,0.756c0.647,0 1.163,-0.252 1.547,-0.756c0.324,-0.455 0.492,-1.031 0.492,-1.703c0,-0.695 -0.168,-1.259 -0.492,-1.715c-0.384,-0.504 -0.899,-0.755 -1.547,-0.755c-0.659,0.001 -1.175,0.252 -1.535,0.755z"/>
    <path id="svg_111" fill="#666666" d="m350.165,294.806c0.24,-0.407 0.528,-0.707 0.864,-0.888c0.3,-0.191 0.659,-0.287 1.091,-0.287c0.647,0 1.163,0.203 1.571,0.611c0.384,0.42 0.588,0.983 0.588,1.691l0,4.065l-0.96,0l0,-3.91c0,-0.552 -0.12,-0.959 -0.348,-1.223c-0.239,-0.288 -0.623,-0.42 -1.151,-0.42c-0.407,0 -0.756,0.144 -1.02,0.455c-0.288,0.312 -0.42,0.708 -0.42,1.212l0,3.886l-0.959,0l0,-3.91c0,-1.104 -0.479,-1.643 -1.428,-1.643c-0.443,0 -0.803,0.168 -1.091,0.527c-0.288,0.336 -0.432,0.756 -0.432,1.247l0,3.778l-0.96,0l0,-6.2l0.96,0l0,0.827c0.468,-0.672 1.055,-0.995 1.751,-0.995c0.949,0.002 1.596,0.386 1.944,1.177z"/>
   </g>
  </g>
  <rect id="svg_112" fill="#CEE3FF" height="239" width="347" y="187" x="441"/>
  <g id="svg_113">
   <g id="svg_114">
    <path id="svg_115" fill="#00A4FF" d="m459.863,199.556l0,4.328l5.197,0l0,0.98l-5.197,0l0,5.996l6.388,0l0,0.98l-12.467,0l0,-0.98l5.043,0l0,-11.305l1.036,0l0,0.001z"/>
    <path id="svg_116" fill="#00A4FF" d="m470.544,204.977l-0.715,0.715c-0.518,-0.561 -1.232,-1.148 -2.157,-1.793l0.729,-0.7c0.84,0.587 1.555,1.19 2.143,1.778zm0.168,2.662c-0.588,1.624 -1.261,3.151 -1.989,4.58l-0.938,-0.406c0.784,-1.471 1.471,-2.97 2.06,-4.511l0.867,0.337zm0.056,-6.122l-0.714,0.729c-0.519,-0.561 -1.232,-1.148 -2.157,-1.765l0.729,-0.687c0.839,0.56 1.554,1.135 2.142,1.723zm1.485,1.233l7.116,0c-0.043,1.232 -0.085,2.325 -0.112,3.277l1.19,0l0,0.938l-1.232,0c-0.057,1.022 -0.099,1.849 -0.141,2.493l1.148,0l0,0.869l-1.218,0c-0.042,0.392 -0.084,0.63 -0.112,0.742c-0.141,0.448 -0.406,0.784 -0.799,1.008c-0.392,0.196 -0.952,0.295 -1.709,0.295c-0.35,0 -0.756,0.014 -1.219,0.014l-0.294,-0.925c0.505,0.028 0.967,0.057 1.387,0.057c0.378,0 0.715,-0.042 1.022,-0.112c0.309,-0.098 0.532,-0.309 0.673,-0.631c0.028,-0.069 0.056,-0.224 0.084,-0.447l-6.668,0c0.225,-1.121 0.421,-2.242 0.561,-3.362l-1.4,0l0,-0.938l1.498,0c0.112,-1.078 0.183,-2.171 0.211,-3.264c-0.295,0.378 -0.603,0.729 -0.925,1.051l-0.645,-0.771c0.952,-0.911 1.723,-2.102 2.325,-3.586l1.009,0.21c-0.141,0.35 -0.294,0.687 -0.448,0.994l6.472,0l0,0.938l-6.99,0c-0.252,0.407 -0.504,0.786 -0.784,1.15zm0.238,6.709l5.631,0c0.042,-0.63 0.084,-1.457 0.14,-2.493l-5.379,0c-0.112,0.896 -0.237,1.737 -0.392,2.493zm5.897,-5.813l-5.238,0c-0.042,0.84 -0.099,1.639 -0.168,2.381l5.322,0c0.028,-0.728 0.056,-1.527 0.084,-2.381zm-1.737,5l-0.658,0.645c-0.421,-0.477 -0.995,-0.994 -1.724,-1.541l0.631,-0.616c0.701,0.505 1.275,1.009 1.751,1.512zm0.14,-3.389l-0.645,0.645c-0.42,-0.448 -1.008,-0.91 -1.75,-1.401l0.63,-0.616c0.701,0.447 1.289,0.91 1.765,1.372z"/>
   </g>
  </g>
  <g id="svg_117">
   <g id="svg_118">
    <line id="svg_119" fill="none" stroke="#878787" stroke-miterlimit="10" y2="278" x2="614" y1="335" x1="614"/>
   </g>
   <g id="svg_120">
    <polygon id="svg_121" fill="#878787" points="519,353 514,358 509,353   "/>
    <polyline id="svg_122" fill="none" stroke="#878787" stroke-miterlimit="10" points="514,353 514,335 714,335 714,353   "/>
   </g>
   <polygon id="svg_123" fill="#878787" points="719,353 714,358 709,353  "/>
  </g>
  <g id="svg_124">
   <g id="svg_125">
    <rect id="svg_126" opacity="0.6" fill="#BBBBBB" height="50" width="140" y="228" x="545"/>
    <g id="svg_127">
     <rect id="svg_128" fill="#FFFFFF" height="49" width="139" y="226.5" x="543.5"/>
     <path id="svg_129" fill="#E5E5E5" d="m682,227l0,48l-138,0l0,-48l138,0m1,-1l-140,0l0,50l140,0l0,-50l0,0z"/>
    </g>
   </g>
   <g id="svg_130">
    <g id="svg_131">
     <g id="_编组__10_">
      <g id="_编组_2_10_">
       <path fill-rule="evenodd" clip-rule="evenodd" fill="#00A4FF" d="m585.038,249c-1.105,0 -2,0.895 -2,2s0.895,2 2,2c1.105,0 2,-0.895 2,-2s-0.896,-2 -2,-2zm-4,15c-7.18,0.008 -13.007,-5.805 -13.015,-12.985c-0.008,-7.18 5.805,-13.007 12.985,-13.015c6.413,-0.008 11.874,4.663 12.86,11l2,0c-1.105,-8.21 -8.656,-13.971 -16.866,-12.866c-8.21,1.105 -13.971,8.656 -12.866,16.866s8.656,13.971 16.866,12.866c6.697,-0.901 11.965,-6.169 12.866,-12.866l-2,0c-0.985,6.326 -6.428,10.992 -12.83,11zm0,-17l0,-2l-6,0l0,12l6,0l0,-2l-4,0l0,-3l4,0l0,-2l-4,0l0,-3l4,0zm4,-3c-1.105,0 -2,0.895 -2,2s0.895,2 2,2c1.105,0 2,-0.895 2,-2s-0.896,-2 -2,-2zm0,10c-1.105,0 -2,0.895 -2,2s0.895,2 2,2c1.105,0 2,-0.895 2,-2s-0.896,-2 -2,-2z" id="_复合路径__10_"/>
      </g>
     </g>
    </g>
    <g id="svg_132">
     <path id="svg_133" fill="#444444" d="m618.753,254.529l-0.98,0l0,-5.407l-6.892,0l0,5.52l-0.98,0l0,-6.122c-0.42,0.337 -0.854,0.645 -1.274,0.925l-0.645,-0.771c1.709,-1.036 3.124,-2.409 4.216,-4.104l0.995,0.21c-0.21,0.336 -0.42,0.658 -0.645,0.966l4.637,0l0,0.743c-0.504,0.658 -0.995,1.218 -1.485,1.681l3.054,0l0,6.359l-0.001,0zm-3.978,-4.594l0,1.934c-0.056,1.513 -0.546,2.703 -1.457,3.6c-0.896,0.826 -2.367,1.471 -4.398,1.947l-0.546,-0.854c2.017,-0.448 3.432,-1.022 4.23,-1.751c0.742,-0.757 1.135,-1.737 1.19,-2.941l0,-1.934l0.981,0l0,-0.001zm1.176,-3.292l-4.104,0c-0.477,0.561 -0.995,1.064 -1.527,1.527l4.202,0c0.477,-0.435 0.953,-0.939 1.429,-1.527zm4.174,9.931l-0.56,0.854c-1.625,-1.064 -3.292,-1.905 -5.001,-2.521l0.504,-0.756c1.85,0.672 3.531,1.471 5.057,2.423z"/>
     <path id="svg_134" fill="#444444" d="m625.301,245.69l0,-1.177l0.98,0l0,1.177l2.536,0l0,0.925l-2.536,0l0,1.288l3.362,0c-0.056,-1.05 -0.084,-2.185 -0.084,-3.418l0.98,0c0,1.275 0.028,2.41 0.084,3.418l3.53,0l0,0.911l-3.474,0c0.084,1.246 0.196,2.269 0.35,3.054c0.084,0.406 0.168,0.784 0.252,1.148c0.504,-1.009 0.91,-2.186 1.218,-3.502l0.896,0.406c-0.448,1.751 -1.022,3.222 -1.723,4.398c0.112,0.322 0.238,0.603 0.364,0.854c0.364,0.687 0.658,1.036 0.882,1.036c0.224,-0.014 0.42,-0.756 0.588,-2.241l0.869,0.463c-0.309,1.862 -0.743,2.801 -1.331,2.801c-0.476,0 -0.995,-0.434 -1.541,-1.274c-0.154,-0.238 -0.294,-0.49 -0.406,-0.757c-0.729,0.953 -1.555,1.667 -2.479,2.172l-0.546,-0.812c1.009,-0.561 1.877,-1.373 2.591,-2.451c-0.196,-0.617 -0.378,-1.289 -0.532,-2.031c-0.196,-0.925 -0.35,-2.003 -0.434,-3.264l-7.858,0l0,-0.911l3.46,0l0,-1.288l-2.731,0l0,-0.925l2.733,0zm3.516,9.749c-0.701,0.084 -1.429,0.183 -2.186,0.267l0,1.652l-0.994,0l0,-1.555c-1.009,0.099 -2.073,0.183 -3.194,0.267l-0.126,-0.938c1.176,-0.07 2.283,-0.154 3.32,-0.238l0,-1.247l-2.731,0l-0.196,-0.826c0.392,-0.477 0.756,-1.051 1.093,-1.751l-1.541,0l0,-0.896l1.933,0c0.14,-0.336 0.266,-0.7 0.392,-1.064l0.966,0.182c-0.112,0.309 -0.224,0.603 -0.336,0.883l3.67,0l0,0.896l-4.062,0c-0.308,0.645 -0.645,1.219 -0.995,1.723l1.807,0l0,-1.093l0.994,0l0,1.093l2.129,0l0,0.854l-2.129,0l0,1.148c0.771,-0.084 1.499,-0.168 2.186,-0.252l0,0.895zm4.79,-8.712l-0.756,0.533c-0.393,-0.631 -0.938,-1.331 -1.639,-2.102l0.771,-0.49c0.7,0.784 1.246,1.471 1.624,2.059z"/>
     <path id="svg_135" fill="#444444" d="m637.2,248.282l0,-3.67l1.022,0l0,3.67l1.443,0l0,0.98l-1.443,0l0,4.72c0.672,-0.195 1.317,-0.405 1.961,-0.658l0,1.051c-1.358,0.519 -2.829,0.953 -4.398,1.289l-0.28,-1.064c0.588,-0.099 1.148,-0.211 1.695,-0.351l0,-4.986l-1.541,0l0,-0.98l1.541,0l0,-0.001zm6.163,-3.684c-0.154,0.729 -0.35,1.429 -0.588,2.087l5.126,0c0,4.819 -0.084,7.789 -0.252,8.896c-0.154,1.135 -0.84,1.709 -2.059,1.709c-0.378,0 -1.009,-0.028 -1.905,-0.057l-0.252,-0.952c0.756,0.028 1.415,0.056 1.975,0.056c0.729,0 1.148,-0.364 1.274,-1.093c0.14,-0.812 0.21,-3.333 0.238,-7.578l-4.552,0c-0.477,1.023 -1.065,1.934 -1.765,2.746l-0.672,-0.868c1.19,-1.387 2.003,-3.082 2.423,-5.071l1.009,0.125zm2.423,8.419c-1.205,0.826 -2.689,1.555 -4.468,2.185l-0.42,-0.952c1.793,-0.588 3.334,-1.316 4.623,-2.171l0.265,0.938zm-0.826,-1.961l-0.701,0.7c-0.532,-0.631 -1.26,-1.303 -2.185,-2.018l0.645,-0.63c0.896,0.645 1.638,1.303 2.241,1.948z"/>
     <path id="svg_136" fill="#444444" d="m653.049,248.674c-0.28,0.645 -0.617,1.275 -1.023,1.863l0,6.863l-0.938,0l0,-5.701c-0.392,0.421 -0.812,0.827 -1.274,1.219l-0.294,-0.938c1.219,-1.092 2.115,-2.325 2.676,-3.712l0.853,0.406zm-0.196,-3.712c-0.616,1.513 -1.625,2.844 -2.998,4.021l-0.294,-0.98c1.12,-0.995 1.919,-2.144 2.423,-3.432l0.869,0.391zm0.42,3.012l-0.574,-0.687c0.994,-0.729 1.807,-1.667 2.451,-2.829l0.953,0.224c-0.154,0.28 -0.309,0.561 -0.477,0.812l2.227,0l0,0.687c-0.308,0.504 -0.616,0.925 -0.924,1.274l1.569,0l0,5.029l-2.101,0c-0.014,0.364 -0.042,0.7 -0.084,1.022l2.746,0l0,0.91l-2.928,0l-0.07,0.238c0.953,0.477 1.835,1.036 2.62,1.695l-0.532,0.812c-0.785,-0.729 -1.569,-1.331 -2.381,-1.793c-0.434,0.812 -1.205,1.484 -2.325,2.045l-0.603,-0.729c1.121,-0.547 1.877,-1.232 2.241,-2.045l0.084,-0.225l-2.213,0l0,-0.91l2.451,0c0.056,-0.322 0.084,-0.658 0.098,-1.022l-2.087,0l0,-4.623l-0.141,0.115zm3.558,-1.667l-1.807,0c-0.336,0.42 -0.714,0.799 -1.107,1.148l2.045,0c0.294,-0.336 0.589,-0.728 0.869,-1.148zm-1.275,3.305l0,-1.4l-1.289,0l0,1.4l1.289,0zm0,0.729l-1.289,0l0,1.387l1.289,0l0,-1.387zm0.813,-0.729l1.289,0l0,-1.4l-1.289,0l0,1.4zm1.288,0.729l-1.289,0l0,1.387l1.289,0l0,-1.387zm1.653,7.004l-0.196,-0.91c0.294,0.042 0.575,0.069 0.841,0.069c0.322,0 0.49,-0.168 0.49,-0.476l0,-6.01l-1.513,0l0,-0.952l3.502,0l0,0.952l-1.05,0l0,6.248c0,0.714 -0.364,1.078 -1.093,1.078l-0.981,0l0,0.001zm2.899,-11.809l0,0.911l-3.124,0l0,-0.911l3.124,0z"/>
    </g>
   </g>
  </g>
  <g id="svg_137">
   <g id="svg_138">
    <rect id="svg_139" opacity="0.6" fill="#BBBBBB" height="50" width="121" y="364" x="455"/>
    <g id="svg_140">
     <rect id="svg_141" fill="#FFFFFF" height="49" width="120" y="362.5" x="453.5"/>
     <path id="svg_142" fill="#E5E5E5" d="m573,363l0,48l-119,0l0,-48l119,0m1,-1l-121,0l0,50l121,0l0,-50l0,0z"/>
    </g>
   </g>
   <g id="svg_143">
    <g id="svg_144">
     <path id="svg_145" fill="#00A4FF" d="m491.038,400c-7.18,0.008 -13.007,-5.805 -13.015,-12.985c-0.008,-7.18 5.805,-13.007 12.985,-13.015c6.413,-0.008 11.874,4.663 12.86,11l2,0c-1.105,-8.21 -8.656,-13.971 -16.866,-12.866c-8.21,1.105 -13.971,8.656 -12.866,16.866c1.105,8.21 8.656,13.971 16.866,12.866c6.697,-0.901 11.965,-6.169 12.866,-12.866l-2,0c-0.985,6.326 -6.428,10.992 -12.83,11zm7,-17l-7,-4l-7,4l0,8l3.2,1.83c0.185,-0.645 0.529,-1.233 1,-1.71l-2.2,-1.28l0,-3.7l5,2.86l5,-2.86l0,3.7l-4.14,2.36c-0.997,-0.475 -2.191,-0.052 -2.666,0.946c-0.475,0.997 -0.052,2.191 0.946,2.666c0.997,0.475 2.191,0.052 2.666,-0.946c0.129,-0.27 0.195,-0.566 0.194,-0.866l0,-0.14l5,-2.86l0,-8zm-7,3.7l-4.72,-2.7l4.72,-2.7l4.72,2.7l-4.72,2.7z"/>
    </g>
    <g id="svg_146">
     <path id="svg_147" fill="#444444" d="m525.125,382.685c0.756,0.589 1.205,1.387 1.345,2.382l-1.107,0c-0.14,-0.729 -0.504,-1.289 -1.064,-1.681c-0.546,-0.379 -1.205,-0.561 -1.989,-0.561c-1.163,0 -2.059,0.406 -2.689,1.219c-0.588,0.756 -0.883,1.751 -0.883,2.997c0,1.247 0.28,2.241 0.869,2.97c0.616,0.771 1.499,1.163 2.675,1.163c0.798,0 1.471,-0.21 2.031,-0.631c0.588,-0.448 0.995,-1.106 1.19,-1.975l1.107,0c-0.224,1.162 -0.743,2.073 -1.569,2.717c-0.771,0.603 -1.695,0.911 -2.76,0.911c-1.555,0 -2.746,-0.519 -3.572,-1.541c-0.756,-0.925 -1.121,-2.129 -1.121,-3.614c0,-1.484 0.378,-2.703 1.148,-3.655c0.84,-1.065 2.045,-1.583 3.586,-1.583c1.108,0 2.047,0.294 2.803,0.882z"/>
     <path id="svg_148" fill="#444444" d="m528.523,381.999l3.124,8.754l0.042,0l3.124,-8.754l1.261,0l-3.699,10.001l-1.415,0l-3.698,-10.001l1.261,0z"/>
     <path id="svg_149" fill="#444444" d="m538.576,381.999l3.726,8.53l0.042,0l3.712,-8.53l1.429,0l0,10.001l-1.149,0l0,-7.956l-0.042,0l-3.46,7.956l-1.037,0l-3.46,-7.956l-0.042,0l0,7.956l-1.148,0l0,-10.001l1.429,0z"/>
    </g>
   </g>
  </g>
  <g id="svg_150">
   <g id="svg_151">
    <rect id="svg_152" opacity="0.6" fill="#BBBBBB" height="50" width="121" y="364" x="655"/>
    <g id="svg_153">
     <rect id="svg_154" fill="#FFFFFF" height="49" width="120" y="362.5" x="653.5"/>
     <path id="svg_155" fill="#E5E5E5" d="m773,363l0,48l-119,0l0,-48l119,0m1,-1l-121,0l0,50l121,0l0,-50l0,0z"/>
    </g>
   </g>
   <g id="svg_156">
    <g id="svg_157">
     <path id="svg_158" fill="#00A4FF" d="m691.038,400c-7.18,0.008 -13.007,-5.805 -13.015,-12.985c-0.008,-7.18 5.805,-13.007 12.985,-13.015c6.413,-0.008 11.874,4.663 12.86,11l2,0c-1.105,-8.21 -8.656,-13.971 -16.866,-12.866c-8.21,1.105 -13.971,8.656 -12.866,16.866s8.656,13.971 16.866,12.866c6.697,-0.901 11.965,-6.169 12.866,-12.866l-2,0c-0.985,6.326 -6.428,10.992 -12.83,11zm7,-17l-7,-4l-7,4l0,8l3.2,1.83c0.185,-0.645 0.529,-1.233 1,-1.71l-2.2,-1.28l0,-3.7l5,2.86l5,-2.86l0,3.7l-4.14,2.36c-0.997,-0.475 -2.191,-0.052 -2.666,0.946c-0.475,0.997 -0.052,2.191 0.946,2.666c0.997,0.475 2.191,0.052 2.666,-0.946c0.129,-0.27 0.195,-0.566 0.194,-0.866l0,-0.14l5,-2.86l0,-8zm-7,3.7l-4.72,-2.7l4.72,-2.7l4.72,2.7l-4.72,2.7z"/>
    </g>
    <g id="svg_159">
     <path id="svg_160" fill="#444444" d="m725.125,382.685c0.756,0.589 1.205,1.387 1.345,2.382l-1.107,0c-0.14,-0.729 -0.504,-1.289 -1.064,-1.681c-0.546,-0.379 -1.205,-0.561 -1.989,-0.561c-1.163,0 -2.059,0.406 -2.689,1.219c-0.588,0.756 -0.883,1.751 -0.883,2.997c0,1.247 0.28,2.241 0.869,2.97c0.616,0.771 1.499,1.163 2.675,1.163c0.798,0 1.471,-0.21 2.031,-0.631c0.588,-0.448 0.995,-1.106 1.19,-1.975l1.107,0c-0.224,1.162 -0.743,2.073 -1.569,2.717c-0.771,0.603 -1.695,0.911 -2.76,0.911c-1.555,0 -2.746,-0.519 -3.572,-1.541c-0.756,-0.925 -1.121,-2.129 -1.121,-3.614c0,-1.484 0.378,-2.703 1.148,-3.655c0.84,-1.065 2.045,-1.583 3.586,-1.583c1.108,0 2.046,0.294 2.803,0.882z"/>
     <path id="svg_161" fill="#444444" d="m728.522,381.999l3.124,8.754l0.042,0l3.124,-8.754l1.261,0l-3.698,10.001l-1.415,0l-3.698,-10.001l1.26,0z"/>
     <path id="svg_162" fill="#444444" d="m738.575,381.999l3.726,8.53l0.042,0l3.712,-8.53l1.429,0l0,10.001l-1.149,0l0,-7.956l-0.042,0l-3.46,7.956l-1.037,0l-3.46,-7.956l-0.042,0l0,7.956l-1.148,0l0,-10.001l1.429,0z"/>
    </g>
   </g>
  </g>
  <g id="svg_163">
   <g id="svg_164">
    <g id="svg_165">
     <path id="svg_166" fill="#666666" d="m424.115,117.799l1.523,5.024l1.438,-5.024l0.899,0l1.439,5.024l1.523,-5.024l1.056,0l-2.111,6.2l-0.911,0l-1.439,-4.989l-1.463,4.989l-0.899,0l-2.111,-6.2l1.056,0z"/>
     <path id="svg_167" fill="#666666" d="m433.175,117.799l1.523,5.024l1.439,-5.024l0.899,0l1.439,5.024l1.522,-5.024l1.056,0l-2.11,6.2l-0.912,0l-1.438,-4.989l-1.464,4.989l-0.899,0l-2.11,-6.2l1.055,0z"/>
     <path id="svg_168" fill="#666666" d="m442.235,117.799l1.523,5.024l1.438,-5.024l0.899,0l1.439,5.024l1.523,-5.024l1.056,0l-2.111,6.2l-0.911,0l-1.439,-4.989l-1.463,4.989l-0.899,0l-2.111,-6.2l1.056,0z"/>
     <path id="svg_169" fill="#666666" d="m452.278,122.788c0.145,0.144 0.217,0.312 0.217,0.527c0,0.204 -0.072,0.372 -0.217,0.516c-0.144,0.144 -0.323,0.216 -0.516,0.216c-0.216,0 -0.384,-0.072 -0.516,-0.216c-0.144,-0.144 -0.216,-0.312 -0.216,-0.516c0,-0.216 0.072,-0.384 0.216,-0.527c0.132,-0.145 0.3,-0.216 0.516,-0.216c0.193,0 0.373,0.072 0.516,0.216z"/>
     <path id="svg_170" fill="#666666" d="m458.733,118.817l0,-1.019l0.899,0l0,8.575l-0.96,0l0,-3.502c-0.479,0.863 -1.163,1.295 -2.051,1.295s-1.583,-0.336 -2.087,-0.983c-0.456,-0.6 -0.684,-1.355 -0.684,-2.267c0,-0.936 0.228,-1.691 0.695,-2.291c0.504,-0.672 1.212,-0.995 2.123,-0.995c0.926,0.001 1.609,0.396 2.065,1.187zm-3.454,0.349c-0.3,0.432 -0.444,1.02 -0.444,1.751c0,0.743 0.156,1.331 0.468,1.763c0.336,0.456 0.852,0.695 1.523,0.695c0.552,0 1.007,-0.228 1.355,-0.659c0.335,-0.443 0.516,-1.02 0.516,-1.739l0,-0.12c0,-0.695 -0.156,-1.271 -0.456,-1.703c-0.348,-0.491 -0.827,-0.731 -1.451,-0.731c-0.672,-0.001 -1.176,0.239 -1.511,0.743z"/>
     <path id="svg_171" fill="#666666" d="m465.645,118.17c0.479,0.372 0.768,0.936 0.876,1.691l-0.947,0c-0.084,-0.479 -0.276,-0.84 -0.576,-1.079c-0.312,-0.24 -0.708,-0.348 -1.199,-0.348c-0.6,0 -1.079,0.228 -1.428,0.684c-0.335,0.443 -0.503,1.043 -0.503,1.799c0,0.755 0.155,1.355 0.491,1.787c0.324,0.432 0.804,0.659 1.428,0.659c1.055,0 1.667,-0.54 1.811,-1.607l0.96,0c-0.145,0.792 -0.444,1.403 -0.924,1.812c-0.468,0.396 -1.079,0.6 -1.847,0.6c-0.936,0 -1.655,-0.312 -2.171,-0.936c-0.492,-0.588 -0.731,-1.355 -0.731,-2.303s0.239,-1.715 0.731,-2.314c0.527,-0.66 1.259,-0.983 2.183,-0.983c0.766,-0.001 1.378,0.179 1.846,0.538z"/>
     <path id="svg_172" fill="#666666" d="m468.826,115.268l0,8.731l-0.947,0l0,-8.731l0.947,0z"/>
     <path id="svg_173" fill="#666666" d="m475.496,118.59c0.528,0.612 0.792,1.38 0.792,2.314c0,0.924 -0.264,1.691 -0.78,2.291c-0.563,0.647 -1.307,0.972 -2.23,0.972c-0.936,0 -1.667,-0.324 -2.219,-0.972c-0.527,-0.6 -0.791,-1.367 -0.791,-2.291c0,-0.935 0.264,-1.702 0.791,-2.314c0.552,-0.647 1.283,-0.959 2.219,-0.959c0.923,0 1.666,0.311 2.218,0.959zm-3.754,0.599c-0.336,0.456 -0.491,1.02 -0.491,1.715c0,0.684 0.155,1.248 0.491,1.703c0.36,0.504 0.876,0.756 1.535,0.756c0.647,0 1.163,-0.252 1.547,-0.756c0.324,-0.455 0.492,-1.031 0.492,-1.703c0,-0.695 -0.168,-1.259 -0.492,-1.715c-0.384,-0.504 -0.899,-0.755 -1.547,-0.755c-0.659,0.001 -1.174,0.252 -1.535,0.755z"/>
     <path id="svg_174" fill="#666666" d="m478.499,117.799l0,3.789c0,0.588 0.12,1.032 0.371,1.319c0.252,0.288 0.66,0.444 1.224,0.444c0.408,0 0.779,-0.168 1.104,-0.479c0.336,-0.336 0.54,-0.768 0.611,-1.296l0,-3.777l0.96,0l0,6.2l-0.96,0l0,-0.959c-0.503,0.743 -1.175,1.127 -2.015,1.127c-1.511,0 -2.255,-0.852 -2.255,-2.53l0,-3.838l0.96,0z"/>
     <path id="svg_175" fill="#666666" d="m489.8,115.268l0,8.731l-0.9,0l0,-1.02c-0.432,0.792 -1.127,1.188 -2.062,1.188c-0.912,0 -1.619,-0.336 -2.123,-0.983c-0.468,-0.6 -0.695,-1.367 -0.695,-2.303c0,-0.911 0.228,-1.655 0.695,-2.255c0.504,-0.672 1.188,-0.995 2.075,-0.995c0.887,0 1.57,0.432 2.051,1.307l0,-3.67l0.959,0zm-4.342,3.874c-0.312,0.42 -0.455,0.995 -0.455,1.739c0,0.743 0.144,1.331 0.443,1.763c0.336,0.479 0.84,0.731 1.511,0.731c0.624,0 1.104,-0.239 1.452,-0.72c0.3,-0.432 0.455,-0.995 0.455,-1.69l0,-0.12c0,-0.72 -0.18,-1.308 -0.516,-1.751c-0.348,-0.456 -0.804,-0.672 -1.355,-0.672c-0.683,0 -1.199,0.24 -1.535,0.72z"/>
     <path id="svg_176" fill="#666666" d="m492.946,117.799l1.535,0l0,0.803l-1.535,0l0,3.946c0,0.228 0.036,0.396 0.132,0.492c0.084,0.096 0.24,0.155 0.456,0.155l0.791,0l0,0.804l-0.936,0c-0.503,0 -0.875,-0.132 -1.091,-0.396c-0.204,-0.24 -0.3,-0.588 -0.3,-1.056l0,-3.946l-1.247,0l0,-0.803l1.247,0l0,-1.607l0.947,-0.396l0,2.004l0.001,0z"/>
     <path id="svg_177" fill="#666666" d="m500.36,118.638c0.456,0.6 0.695,1.451 0.72,2.531l-4.894,0c0.048,0.695 0.228,1.235 0.563,1.619s0.804,0.575 1.392,0.575c0.504,0 0.924,-0.132 1.235,-0.384c0.264,-0.216 0.468,-0.54 0.624,-0.972l0.959,0c-0.144,0.6 -0.42,1.08 -0.84,1.464c-0.516,0.455 -1.175,0.695 -1.979,0.695c-0.888,0 -1.607,-0.3 -2.135,-0.876c-0.552,-0.6 -0.815,-1.391 -0.815,-2.398c0,-0.911 0.252,-1.679 0.779,-2.291c0.527,-0.647 1.235,-0.971 2.135,-0.971c0.997,0.001 1.752,0.337 2.256,1.008zm-3.562,0.336c-0.335,0.36 -0.527,0.84 -0.587,1.451l3.874,0c-0.12,-1.331 -0.78,-1.99 -1.955,-1.99c-0.552,0 -0.996,0.179 -1.332,0.539z"/>
     <path id="svg_178" fill="#666666" d="m506.948,119.562l-0.936,0c-0.084,-0.384 -0.239,-0.672 -0.479,-0.84c-0.264,-0.191 -0.647,-0.287 -1.14,-0.287c-0.432,0 -0.768,0.071 -1.007,0.239c-0.264,0.156 -0.396,0.372 -0.396,0.647c0,0.264 0.168,0.492 0.528,0.672c0.228,0.108 0.659,0.24 1.283,0.408c0.743,0.18 1.271,0.371 1.595,0.575c0.492,0.312 0.744,0.731 0.744,1.271c0,1.271 -0.876,1.919 -2.627,1.919c-1.631,0 -2.519,-0.72 -2.662,-2.146l0.936,0c0.071,0.491 0.252,0.839 0.516,1.055c0.264,0.192 0.659,0.288 1.188,0.288c1.104,0 1.667,-0.359 1.667,-1.056c0,-0.348 -0.204,-0.611 -0.588,-0.803c-0.204,-0.097 -0.647,-0.229 -1.319,-0.396c-0.731,-0.18 -1.247,-0.359 -1.535,-0.552c-0.479,-0.287 -0.708,-0.684 -0.708,-1.211c0,-0.528 0.229,-0.936 0.696,-1.247c0.432,-0.312 1.007,-0.468 1.703,-0.468c1.534,0.001 2.373,0.637 2.541,1.932z"/>
     <path id="svg_179" fill="#666666" d="m509.927,117.799l1.535,0l0,0.803l-1.535,0l0,3.946c0,0.228 0.035,0.396 0.132,0.492c0.084,0.096 0.239,0.155 0.455,0.155l0.792,0l0,0.804l-0.936,0c-0.504,0 -0.876,-0.132 -1.092,-0.396c-0.203,-0.24 -0.3,-0.588 -0.3,-1.056l0,-3.946l-1.247,0l0,-0.803l1.247,0l0,-1.607l0.948,-0.396l0,2.004l0.001,0z"/>
     <path id="svg_180" fill="#666666" d="m513.886,122.788c0.145,0.144 0.217,0.312 0.217,0.527c0,0.204 -0.072,0.372 -0.217,0.516c-0.144,0.144 -0.323,0.216 -0.516,0.216c-0.216,0 -0.384,-0.072 -0.516,-0.216c-0.144,-0.144 -0.216,-0.312 -0.216,-0.516c0,-0.216 0.072,-0.384 0.216,-0.527c0.132,-0.145 0.3,-0.216 0.516,-0.216c0.192,0 0.372,0.072 0.516,0.216z"/>
     <path id="svg_181" fill="#666666" d="m520.221,118.17c0.479,0.372 0.768,0.936 0.875,1.691l-0.947,0c-0.084,-0.479 -0.275,-0.84 -0.575,-1.079c-0.312,-0.24 -0.708,-0.348 -1.2,-0.348c-0.6,0 -1.079,0.228 -1.427,0.684c-0.336,0.443 -0.504,1.043 -0.504,1.799c0,0.755 0.156,1.355 0.492,1.787c0.323,0.432 0.804,0.659 1.427,0.659c1.056,0 1.667,-0.54 1.812,-1.607l0.959,0c-0.144,0.792 -0.443,1.403 -0.924,1.812c-0.468,0.396 -1.079,0.6 -1.847,0.6c-0.936,0 -1.655,-0.312 -2.171,-0.936c-0.491,-0.588 -0.731,-1.355 -0.731,-2.303s0.24,-1.715 0.731,-2.314c0.528,-0.66 1.26,-0.983 2.183,-0.983c0.767,-0.001 1.379,0.179 1.847,0.538z"/>
     <path id="svg_182" fill="#666666" d="m527.252,118.59c0.528,0.612 0.792,1.38 0.792,2.314c0,0.924 -0.264,1.691 -0.78,2.291c-0.563,0.647 -1.307,0.972 -2.23,0.972c-0.936,0 -1.667,-0.324 -2.219,-0.972c-0.527,-0.6 -0.791,-1.367 -0.791,-2.291c0,-0.935 0.264,-1.702 0.791,-2.314c0.552,-0.647 1.283,-0.959 2.219,-0.959c0.923,0 1.666,0.311 2.218,0.959zm-3.754,0.599c-0.336,0.456 -0.491,1.02 -0.491,1.715c0,0.684 0.155,1.248 0.491,1.703c0.36,0.504 0.876,0.756 1.535,0.756c0.647,0 1.163,-0.252 1.547,-0.756c0.324,-0.455 0.492,-1.031 0.492,-1.703c0,-0.695 -0.168,-1.259 -0.492,-1.715c-0.384,-0.504 -0.899,-0.755 -1.547,-0.755c-0.659,0.001 -1.175,0.252 -1.535,0.755z"/>
     <path id="svg_183" fill="#666666" d="m533.948,118.806c0.24,-0.407 0.528,-0.707 0.864,-0.888c0.3,-0.191 0.659,-0.287 1.091,-0.287c0.647,0 1.163,0.203 1.571,0.611c0.384,0.42 0.588,0.983 0.588,1.691l0,4.065l-0.96,0l0,-3.91c0,-0.552 -0.12,-0.959 -0.348,-1.223c-0.239,-0.288 -0.623,-0.42 -1.151,-0.42c-0.407,0 -0.756,0.144 -1.02,0.455c-0.288,0.312 -0.42,0.708 -0.42,1.212l0,3.886l-0.959,0l0,-3.91c0,-1.104 -0.479,-1.643 -1.428,-1.643c-0.443,0 -0.803,0.168 -1.091,0.527c-0.288,0.336 -0.432,0.756 -0.432,1.247l0,3.778l-0.96,0l0,-6.2l0.96,0l0,0.827c0.468,-0.672 1.055,-0.995 1.751,-0.995c0.949,0.002 1.597,0.386 1.944,1.177z"/>
    </g>
   </g>
  </g>
  <g id="svg_184">
   <g id="svg_185">
    <path id="svg_186" fill="#666666" d="m623.835,293.391l0,-3.166l0.852,0l0,3.166l1.139,0l0,0.84l-1.139,0l0,3.622c0.384,-0.168 0.768,-0.36 1.127,-0.552l0,0.863c-0.948,0.504 -1.967,0.924 -3.046,1.259l-0.216,-0.875c0.432,-0.108 0.863,-0.228 1.283,-0.372l0,-3.945l-1.175,0l0,-0.84l1.175,0zm5.637,5.348c-1.175,0.456 -2.446,0.84 -3.813,1.151l-0.204,-0.827c1.391,-0.24 2.734,-0.611 4.018,-1.104l0,0.78l-0.001,0zm0.611,-6.908c-0.012,-0.527 -0.012,-1.067 -0.012,-1.619l0.839,0c0,0.564 0,1.104 0.012,1.619l1.224,0c-0.168,-0.455 -0.336,-0.863 -0.528,-1.234l0.78,-0.133c0.156,0.396 0.312,0.852 0.468,1.367l0.587,0l0,0.816l-2.519,0c0.036,1.847 0.12,3.357 0.252,4.521c0.468,-1.008 0.839,-2.171 1.104,-3.515l0.744,0.312c-0.396,1.799 -0.948,3.31 -1.655,4.509c0.24,1.14 0.504,1.728 0.815,1.775c0.24,-0.024 0.468,-0.636 0.708,-1.812l0.648,0.528c-0.384,1.439 -0.828,2.158 -1.355,2.158c-0.396,0 -0.744,-0.312 -1.055,-0.936c-0.12,-0.251 -0.24,-0.539 -0.336,-0.851c-0.588,0.768 -1.259,1.379 -2.003,1.835l-0.528,-0.684c0.888,-0.517 1.655,-1.248 2.279,-2.195c-0.072,-0.336 -0.12,-0.684 -0.168,-1.067c-0.156,-1.199 -0.252,-2.734 -0.288,-4.581l-4.258,0l0,-0.816l4.245,0l0,0.003zm-0.719,2.003l0,3.383l-3.046,0l0,-3.383l3.046,0zm-0.768,0.72l-1.523,0l0,1.955l1.523,0l0,-1.955z"/>
    <path id="svg_187" fill="#666666" d="m638.258,301.162l-0.864,0l0,-4.233c-0.744,0.24 -1.523,0.456 -2.363,0.659l-0.456,-0.827c2.075,-0.432 3.802,-0.983 5.181,-1.679c-0.528,-0.444 -1.247,-0.924 -2.159,-1.439l0.744,-0.468c0.911,0.563 1.631,1.067 2.146,1.511c1.224,-0.731 2.111,-1.583 2.675,-2.566l-4.438,0c-0.816,0.756 -1.847,1.428 -3.119,2.027l-0.576,-0.744c2.051,-0.875 3.43,-1.955 4.15,-3.226l0.947,0.107c-0.192,0.36 -0.408,0.695 -0.647,1.02l4.677,0l0,0.768c-0.863,1.644 -2.411,2.986 -4.665,4.03l5.001,0l0,5.061l-0.875,0l0,-0.707l-5.361,0l0,0.706l0.002,0zm5.361,-4.258l-5.361,0l0,2.711l5.361,0l0,-2.711z"/>
    <path id="svg_188" fill="#666666" d="m652.095,294.374c0.144,0.144 0.216,0.312 0.216,0.516s-0.072,0.384 -0.216,0.528c-0.144,0.132 -0.324,0.203 -0.516,0.203c-0.216,0 -0.384,-0.071 -0.516,-0.203c-0.144,-0.145 -0.216,-0.324 -0.216,-0.528s0.072,-0.372 0.216,-0.516c0.132,-0.144 0.3,-0.216 0.516,-0.216c0.192,0 0.372,0.072 0.516,0.216zm0,4.39c0.144,0.144 0.216,0.312 0.216,0.516s-0.072,0.384 -0.216,0.528c-0.144,0.132 -0.324,0.203 -0.516,0.203c-0.216,0 -0.384,-0.071 -0.516,-0.203c-0.144,-0.145 -0.216,-0.324 -0.216,-0.528s0.072,-0.372 0.216,-0.516c0.132,-0.144 0.3,-0.216 0.516,-0.216c0.192,0 0.372,0.072 0.516,0.216z"/>
    <path id="svg_189" fill="#666666" d="m662.641,295.562l-0.936,0c-0.084,-0.384 -0.24,-0.672 -0.479,-0.84c-0.264,-0.191 -0.648,-0.287 -1.14,-0.287c-0.432,0 -0.768,0.071 -1.007,0.239c-0.264,0.156 -0.396,0.372 -0.396,0.647c0,0.264 0.168,0.492 0.528,0.672c0.228,0.108 0.66,0.24 1.283,0.408c0.744,0.18 1.271,0.371 1.595,0.575c0.492,0.312 0.744,0.731 0.744,1.271c0,1.271 -0.875,1.919 -2.626,1.919c-1.631,0 -2.519,-0.72 -2.663,-2.146l0.936,0c0.072,0.491 0.252,0.839 0.516,1.055c0.264,0.192 0.66,0.288 1.188,0.288c1.104,0 1.667,-0.359 1.667,-1.056c0,-0.348 -0.204,-0.611 -0.588,-0.803c-0.204,-0.097 -0.647,-0.229 -1.319,-0.396c-0.731,-0.18 -1.247,-0.359 -1.535,-0.552c-0.479,-0.287 -0.708,-0.684 -0.708,-1.211c0,-0.528 0.228,-0.936 0.696,-1.247c0.432,-0.312 1.007,-0.468 1.703,-0.468c1.534,0.001 2.373,0.637 2.541,1.932z"/>
    <path id="svg_190" fill="#666666" d="m664.923,291.268l0,3.55c0.216,-0.396 0.503,-0.695 0.863,-0.899c0.336,-0.191 0.708,-0.287 1.127,-0.287c0.72,0 1.283,0.203 1.667,0.636c0.384,0.419 0.576,1.031 0.576,1.822l0,3.91l-0.959,0l0,-3.766c0,-0.576 -0.144,-1.02 -0.408,-1.332c-0.288,-0.312 -0.684,-0.467 -1.199,-0.467c-0.479,0 -0.875,0.191 -1.188,0.575c-0.324,0.384 -0.479,0.876 -0.479,1.451l0,3.538l-0.959,0l0,-8.731l0.959,0z"/>
    <path id="svg_191" fill="#666666" d="m671.991,298.788c0.144,0.144 0.216,0.312 0.216,0.527c0,0.204 -0.072,0.372 -0.216,0.516c-0.144,0.144 -0.324,0.216 -0.516,0.216c-0.216,0 -0.384,-0.072 -0.516,-0.216c-0.144,-0.144 -0.216,-0.312 -0.216,-0.516c0,-0.216 0.072,-0.384 0.216,-0.527c0.132,-0.145 0.3,-0.216 0.516,-0.216c0.192,0 0.372,0.072 0.516,0.216z"/>
    <path id="svg_192" fill="#666666" d="m678.445,294.817l0,-1.019l0.899,0l0,8.575l-0.959,0l0,-3.502c-0.48,0.863 -1.164,1.295 -2.051,1.295c-0.888,0 -1.583,-0.336 -2.087,-0.983c-0.456,-0.6 -0.684,-1.355 -0.684,-2.267c0,-0.936 0.228,-1.691 0.695,-2.291c0.504,-0.672 1.211,-0.995 2.123,-0.995c0.925,0.001 1.608,0.396 2.064,1.187zm-3.454,0.349c-0.3,0.432 -0.444,1.02 -0.444,1.751c0,0.743 0.156,1.331 0.468,1.763c0.335,0.456 0.852,0.695 1.523,0.695c0.552,0 1.007,-0.228 1.355,-0.659c0.335,-0.443 0.516,-1.02 0.516,-1.739l0,-0.12c0,-0.695 -0.156,-1.271 -0.456,-1.703c-0.348,-0.491 -0.827,-0.731 -1.451,-0.731c-0.671,-0.001 -1.175,0.239 -1.511,0.743z"/>
    <path id="svg_193" fill="#666666" d="m685.357,294.17c0.479,0.372 0.768,0.936 0.875,1.691l-0.947,0c-0.084,-0.479 -0.276,-0.84 -0.576,-1.079c-0.312,-0.24 -0.708,-0.348 -1.2,-0.348c-0.6,0 -1.079,0.228 -1.427,0.684c-0.335,0.443 -0.503,1.043 -0.503,1.799c0,0.755 0.156,1.355 0.492,1.787c0.324,0.432 0.803,0.659 1.427,0.659c1.055,0 1.667,-0.54 1.811,-1.607l0.959,0c-0.144,0.792 -0.444,1.403 -0.924,1.812c-0.468,0.396 -1.079,0.6 -1.847,0.6c-0.936,0 -1.655,-0.312 -2.171,-0.936c-0.492,-0.588 -0.731,-1.355 -0.731,-2.303s0.24,-1.715 0.731,-2.314c0.528,-0.66 1.259,-0.983 2.183,-0.983c0.768,-0.001 1.38,0.179 1.848,0.538z"/>
    <path id="svg_194" fill="#666666" d="m688.539,291.268l0,8.731l-0.947,0l0,-8.731l0.947,0z"/>
    <path id="svg_195" fill="#666666" d="m695.208,294.59c0.528,0.612 0.792,1.38 0.792,2.314c0,0.924 -0.264,1.691 -0.78,2.291c-0.563,0.647 -1.307,0.972 -2.23,0.972c-0.936,0 -1.667,-0.324 -2.219,-0.972c-0.528,-0.6 -0.792,-1.367 -0.792,-2.291c0,-0.935 0.264,-1.702 0.792,-2.314c0.552,-0.647 1.283,-0.959 2.219,-0.959c0.923,0 1.667,0.311 2.218,0.959zm-3.753,0.599c-0.336,0.456 -0.492,1.02 -0.492,1.715c0,0.684 0.156,1.248 0.492,1.703c0.36,0.504 0.875,0.756 1.535,0.756c0.647,0 1.163,-0.252 1.547,-0.756c0.324,-0.455 0.492,-1.031 0.492,-1.703c0,-0.695 -0.167,-1.259 -0.492,-1.715c-0.384,-0.504 -0.899,-0.755 -1.547,-0.755c-0.66,0.001 -1.176,0.252 -1.535,0.755z"/>
    <path id="svg_196" fill="#666666" d="m698.211,293.799l0,3.789c0,0.588 0.12,1.032 0.372,1.319c0.252,0.288 0.66,0.444 1.224,0.444c0.408,0 0.779,-0.168 1.103,-0.479c0.336,-0.336 0.54,-0.768 0.612,-1.296l0,-3.777l0.959,0l0,6.2l-0.959,0l0,-0.959c-0.503,0.743 -1.175,1.127 -2.015,1.127c-1.511,0 -2.255,-0.852 -2.255,-2.53l0,-3.838l0.959,0z"/>
    <path id="svg_197" fill="#666666" d="m709.512,291.268l0,8.731l-0.899,0l0,-1.02c-0.432,0.792 -1.127,1.188 -2.063,1.188c-0.912,0 -1.619,-0.336 -2.123,-0.983c-0.468,-0.6 -0.695,-1.367 -0.695,-2.303c0,-0.911 0.228,-1.655 0.695,-2.255c0.504,-0.672 1.188,-0.995 2.075,-0.995c0.887,0 1.571,0.432 2.051,1.307l0,-3.67l0.959,0zm-4.342,3.874c-0.312,0.42 -0.456,0.995 -0.456,1.739c0,0.743 0.144,1.331 0.444,1.763c0.335,0.479 0.839,0.731 1.511,0.731c0.624,0 1.104,-0.239 1.452,-0.72c0.3,-0.432 0.456,-0.995 0.456,-1.69l0,-0.12c0,-0.72 -0.18,-1.308 -0.516,-1.751c-0.348,-0.456 -0.804,-0.672 -1.355,-0.672c-0.684,0 -1.2,0.24 -1.536,0.72z"/>
    <path id="svg_198" fill="#666666" d="m712.658,293.799l1.535,0l0,0.803l-1.535,0l0,3.946c0,0.228 0.036,0.396 0.132,0.492c0.084,0.096 0.24,0.155 0.456,0.155l0.792,0l0,0.804l-0.936,0c-0.503,0 -0.875,-0.132 -1.091,-0.396c-0.204,-0.24 -0.3,-0.588 -0.3,-1.056l0,-3.946l-1.247,0l0,-0.803l1.247,0l0,-1.607l0.947,-0.396l0,2.004z"/>
    <path id="svg_199" fill="#666666" d="m720.072,294.638c0.456,0.6 0.696,1.451 0.72,2.531l-4.893,0c0.048,0.695 0.228,1.235 0.563,1.619s0.804,0.575 1.391,0.575c0.504,0 0.924,-0.132 1.235,-0.384c0.264,-0.216 0.468,-0.54 0.624,-0.972l0.959,0c-0.144,0.6 -0.42,1.08 -0.84,1.464c-0.516,0.455 -1.175,0.695 -1.979,0.695c-0.887,0 -1.607,-0.3 -2.135,-0.876c-0.552,-0.6 -0.815,-1.391 -0.815,-2.398c0,-0.911 0.252,-1.679 0.78,-2.291c0.527,-0.647 1.235,-0.971 2.135,-0.971c0.996,0.001 1.752,0.337 2.255,1.008zm-3.562,0.336c-0.335,0.36 -0.527,0.84 -0.587,1.451l3.874,0c-0.12,-1.331 -0.78,-1.99 -1.955,-1.99c-0.552,0 -0.996,0.179 -1.332,0.539z"/>
    <path id="svg_200" fill="#666666" d="m726.661,295.562l-0.936,0c-0.084,-0.384 -0.24,-0.672 -0.479,-0.84c-0.264,-0.191 -0.648,-0.287 -1.14,-0.287c-0.432,0 -0.768,0.071 -1.007,0.239c-0.264,0.156 -0.396,0.372 -0.396,0.647c0,0.264 0.168,0.492 0.528,0.672c0.228,0.108 0.66,0.24 1.283,0.408c0.744,0.18 1.271,0.371 1.595,0.575c0.492,0.312 0.744,0.731 0.744,1.271c0,1.271 -0.875,1.919 -2.626,1.919c-1.631,0 -2.519,-0.72 -2.663,-2.146l0.936,0c0.072,0.491 0.252,0.839 0.516,1.055c0.264,0.192 0.66,0.288 1.188,0.288c1.104,0 1.667,-0.359 1.667,-1.056c0,-0.348 -0.204,-0.611 -0.588,-0.803c-0.204,-0.097 -0.647,-0.229 -1.319,-0.396c-0.731,-0.18 -1.247,-0.359 -1.535,-0.552c-0.479,-0.287 -0.708,-0.684 -0.708,-1.211c0,-0.528 0.228,-0.936 0.696,-1.247c0.432,-0.312 1.007,-0.468 1.703,-0.468c1.533,0.001 2.373,0.637 2.541,1.932z"/>
    <path id="svg_201" fill="#666666" d="m729.639,293.799l1.535,0l0,0.803l-1.535,0l0,3.946c0,0.228 0.036,0.396 0.132,0.492c0.084,0.096 0.24,0.155 0.456,0.155l0.792,0l0,0.804l-0.936,0c-0.503,0 -0.875,-0.132 -1.091,-0.396c-0.204,-0.24 -0.3,-0.588 -0.3,-1.056l0,-3.946l-1.247,0l0,-0.803l1.247,0l0,-1.607l0.948,-0.396l0,2.004l-0.001,0z"/>
    <path id="svg_202" fill="#666666" d="m733.598,298.788c0.144,0.144 0.216,0.312 0.216,0.527c0,0.204 -0.072,0.372 -0.216,0.516c-0.144,0.144 -0.324,0.216 -0.516,0.216c-0.216,0 -0.384,-0.072 -0.516,-0.216c-0.144,-0.144 -0.216,-0.312 -0.216,-0.516c0,-0.216 0.072,-0.384 0.216,-0.527c0.132,-0.145 0.3,-0.216 0.516,-0.216c0.192,0 0.373,0.072 0.516,0.216z"/>
    <path id="svg_203" fill="#666666" d="m739.933,294.17c0.479,0.372 0.768,0.936 0.875,1.691l-0.947,0c-0.084,-0.479 -0.276,-0.84 -0.576,-1.079c-0.312,-0.24 -0.708,-0.348 -1.2,-0.348c-0.6,0 -1.079,0.228 -1.427,0.684c-0.335,0.443 -0.503,1.043 -0.503,1.799c0,0.755 0.156,1.355 0.492,1.787c0.324,0.432 0.804,0.659 1.427,0.659c1.055,0 1.667,-0.54 1.811,-1.607l0.959,0c-0.144,0.792 -0.444,1.403 -0.924,1.812c-0.468,0.396 -1.079,0.6 -1.847,0.6c-0.936,0 -1.655,-0.312 -2.171,-0.936c-0.492,-0.588 -0.731,-1.355 -0.731,-2.303s0.24,-1.715 0.731,-2.314c0.528,-0.66 1.259,-0.983 2.183,-0.983c0.768,-0.001 1.38,0.179 1.848,0.538z"/>
    <path id="svg_204" fill="#666666" d="m746.964,294.59c0.528,0.612 0.792,1.38 0.792,2.314c0,0.924 -0.264,1.691 -0.78,2.291c-0.563,0.647 -1.307,0.972 -2.23,0.972c-0.936,0 -1.667,-0.324 -2.219,-0.972c-0.528,-0.6 -0.792,-1.367 -0.792,-2.291c0,-0.935 0.264,-1.702 0.792,-2.314c0.552,-0.647 1.283,-0.959 2.219,-0.959c0.923,0 1.667,0.311 2.218,0.959zm-3.754,0.599c-0.336,0.456 -0.492,1.02 -0.492,1.715c0,0.684 0.156,1.248 0.492,1.703c0.36,0.504 0.875,0.756 1.535,0.756c0.647,0 1.163,-0.252 1.547,-0.756c0.324,-0.455 0.492,-1.031 0.492,-1.703c0,-0.695 -0.167,-1.259 -0.492,-1.715c-0.384,-0.504 -0.899,-0.755 -1.547,-0.755c-0.659,0.001 -1.175,0.252 -1.535,0.755z"/>
    <path id="svg_205" fill="#666666" d="m753.661,294.806c0.24,-0.407 0.528,-0.707 0.864,-0.888c0.3,-0.191 0.66,-0.287 1.091,-0.287c0.647,0 1.163,0.203 1.571,0.611c0.384,0.42 0.588,0.983 0.588,1.691l0,4.065l-0.959,0l0,-3.91c0,-0.552 -0.12,-0.959 -0.348,-1.223c-0.24,-0.288 -0.624,-0.42 -1.151,-0.42c-0.408,0 -0.756,0.144 -1.02,0.455c-0.288,0.312 -0.42,0.708 -0.42,1.212l0,3.886l-0.959,0l0,-3.91c0,-1.104 -0.479,-1.643 -1.427,-1.643c-0.444,0 -0.803,0.168 -1.091,0.527c-0.288,0.336 -0.432,0.756 -0.432,1.247l0,3.778l-0.959,0l0,-6.2l0.959,0l0,0.827c0.468,-0.672 1.055,-0.995 1.751,-0.995c0.946,0.002 1.594,0.386 1.942,1.177z"/>
   </g>
  </g>
  <g id="svg_206">
   <g id="svg_207">
    <path id="svg_208" fill="#666666" d="m623.847,312.437l0,5.289c0,0.84 0.18,1.476 0.563,1.907c0.396,0.443 1.02,0.672 1.871,0.672c0.839,0 1.463,-0.229 1.871,-0.672c0.372,-0.432 0.563,-1.067 0.563,-1.907l0,-5.289l0.983,0l0,5.277c0,1.115 -0.288,1.967 -0.852,2.555c-0.587,0.6 -1.439,0.899 -2.566,0.899s-1.979,-0.3 -2.555,-0.888c-0.576,-0.6 -0.864,-1.451 -0.864,-2.566l0,-5.277l0.986,0z"/>
    <path id="svg_209" fill="#666666" d="m635.125,312.437c0.852,0 1.523,0.192 2.015,0.588c0.504,0.408 0.768,1.008 0.768,1.799c0,0.479 -0.132,0.899 -0.396,1.271c-0.288,0.384 -0.672,0.624 -1.164,0.743l0,0.024c0.815,0.18 1.271,0.695 1.367,1.56l0.132,1.318c0.048,0.528 0.204,0.948 0.456,1.26l-1.067,0c-0.192,-0.288 -0.312,-0.659 -0.348,-1.14l-0.108,-1.139c-0.048,-0.504 -0.228,-0.876 -0.54,-1.092c-0.288,-0.216 -0.696,-0.312 -1.235,-0.312l-2.59,0l0,3.683l-0.983,0l0,-8.563l3.693,0zm-2.71,4.03l2.59,0c0.624,0 1.115,-0.156 1.451,-0.444c0.3,-0.275 0.456,-0.659 0.456,-1.163c0,-0.527 -0.156,-0.924 -0.444,-1.176c-0.312,-0.264 -0.804,-0.396 -1.463,-0.396l-2.59,0l0,3.179z"/>
    <path id="svg_210" fill="#666666" d="m640.515,312.437l0,7.712l4.953,0l0,0.851l-5.925,0l0,-8.563l0.972,0z"/>
    <path id="svg_211" fill="#666666" d="m651.831,315.375c0.144,0.144 0.216,0.312 0.216,0.516s-0.072,0.384 -0.216,0.528c-0.144,0.132 -0.324,0.203 -0.516,0.203c-0.216,0 -0.384,-0.071 -0.516,-0.203c-0.144,-0.145 -0.216,-0.324 -0.216,-0.528s0.072,-0.372 0.216,-0.516c0.132,-0.144 0.3,-0.216 0.516,-0.216c0.192,0 0.372,0.072 0.516,0.216zm0,4.39c0.144,0.144 0.216,0.312 0.216,0.516s-0.072,0.384 -0.216,0.528c-0.144,0.132 -0.324,0.203 -0.516,0.203c-0.216,0 -0.384,-0.071 -0.516,-0.203c-0.144,-0.145 -0.216,-0.324 -0.216,-0.528s0.072,-0.372 0.216,-0.516c0.132,-0.144 0.3,-0.216 0.516,-0.216c0.192,0 0.372,0.072 0.516,0.216z"/>
    <path id="svg_212" fill="#666666" d="m662.449,311.165l-4.246,11.034l-0.863,0l4.258,-11.034l0.851,0z"/>
    <path id="svg_213" fill="#666666" d="m664.011,314.8l1.775,5.001l1.775,-5.001l1.055,0l-2.351,6.2l-0.971,0l-2.339,-6.2l1.056,0z"/>
    <path id="svg_214" fill="#666666" d="m670.73,312.665c0.144,0.119 0.216,0.287 0.216,0.503c0,0.204 -0.072,0.372 -0.216,0.516c-0.144,0.133 -0.312,0.204 -0.516,0.204s-0.372,-0.071 -0.516,-0.204c-0.144,-0.144 -0.204,-0.312 -0.204,-0.516c0,-0.216 0.06,-0.384 0.204,-0.503c0.144,-0.145 0.312,-0.204 0.516,-0.204s0.372,0.06 0.516,0.204zm-0.036,2.135l0,6.2l-0.959,0l0,-6.2l0.959,0z"/>
    <path id="svg_215" fill="#666666" d="m678.036,312.269l0,8.731l-0.899,0l0,-1.02c-0.432,0.792 -1.127,1.188 -2.063,1.188c-0.912,0 -1.619,-0.336 -2.123,-0.983c-0.468,-0.6 -0.695,-1.367 -0.695,-2.303c0,-0.911 0.228,-1.655 0.695,-2.255c0.504,-0.672 1.188,-0.995 2.075,-0.995c0.887,0 1.571,0.432 2.051,1.307l0,-3.67l0.959,0zm-4.342,3.874c-0.312,0.42 -0.456,0.995 -0.456,1.739c0,0.743 0.144,1.331 0.444,1.763c0.335,0.479 0.839,0.731 1.511,0.731c0.624,0 1.104,-0.239 1.451,-0.72c0.3,-0.432 0.456,-0.995 0.456,-1.69l0,-0.12c0,-0.72 -0.18,-1.308 -0.516,-1.751c-0.348,-0.456 -0.804,-0.672 -1.355,-0.672c-0.683,0 -1.199,0.24 -1.535,0.72z"/>
    <path id="svg_216" fill="#666666" d="m684.336,315.639c0.456,0.6 0.696,1.451 0.72,2.531l-4.893,0c0.048,0.695 0.228,1.235 0.563,1.619s0.804,0.575 1.391,0.575c0.504,0 0.924,-0.132 1.235,-0.384c0.264,-0.216 0.468,-0.54 0.624,-0.972l0.959,0c-0.144,0.6 -0.42,1.08 -0.84,1.464c-0.516,0.455 -1.175,0.695 -1.979,0.695c-0.887,0 -1.607,-0.3 -2.135,-0.876c-0.552,-0.6 -0.815,-1.391 -0.815,-2.398c0,-0.911 0.252,-1.679 0.78,-2.291c0.527,-0.647 1.235,-0.971 2.135,-0.971c0.996,0.001 1.752,0.337 2.255,1.008zm-3.562,0.336c-0.335,0.36 -0.527,0.84 -0.587,1.451l3.874,0c-0.12,-1.331 -0.78,-1.99 -1.955,-1.99c-0.552,0 -0.996,0.179 -1.332,0.539z"/>
    <path id="svg_217" fill="#666666" d="m691.176,315.591c0.528,0.612 0.792,1.38 0.792,2.314c0,0.924 -0.264,1.691 -0.78,2.291c-0.563,0.647 -1.307,0.972 -2.23,0.972c-0.936,0 -1.667,-0.324 -2.219,-0.972c-0.528,-0.6 -0.792,-1.367 -0.792,-2.291c0,-0.935 0.264,-1.702 0.792,-2.314c0.552,-0.647 1.283,-0.959 2.219,-0.959c0.923,0 1.667,0.311 2.218,0.959zm-3.754,0.599c-0.336,0.456 -0.492,1.02 -0.492,1.715c0,0.684 0.156,1.248 0.492,1.703c0.36,0.504 0.875,0.756 1.535,0.756c0.647,0 1.163,-0.252 1.547,-0.756c0.324,-0.455 0.492,-1.031 0.492,-1.703c0,-0.695 -0.167,-1.259 -0.492,-1.715c-0.384,-0.504 -0.899,-0.755 -1.547,-0.755c-0.659,0.001 -1.175,0.252 -1.535,0.755z"/>
   </g>
  </g>
  <g id="svg_6">
   <g id="svg_7">
    <line id="svg_8" fill="none" stroke="#878787" stroke-miterlimit="10" y2="92" x2="414" y1="149" x1="414"/>
   </g>
   <g id="svg_9">
    <polygon id="svg_10" fill="#878787" points="219,217 214,222 209,217   "/>
    <polyline id="svg_11" fill="none" stroke="#878787" stroke-miterlimit="10" points="214,217 214,149 614,149 614,217   "/>
   </g>
   <polygon id="svg_12" fill="#878787" points="619,217 614,222 609,217  "/>
  </g>
 </g>
</svg>